<?xml version="1.0" encoding="utf-8"?>
<!-- Generator: Adobe Illustrator 15.1.0, SVG Export Plug-In . SVG Version: 6.00 Build 0)  -->
<!DOCTYPE svg PUBLIC "-//W3C//DTD SVG 1.1//EN" "http://www.w3.org/Graphics/SVG/1.1/DTD/svg11.dtd">
<svg version="1.1" id="Layer_1" xmlns="http://www.w3.org/2000/svg" xmlns:xlink="http://www.w3.org/1999/xlink" x="0px" y="0px"
	 width="89.285px" height="100px" viewBox="0 0 89.285 100" enable-background="new 0 0 89.285 100" xml:space="preserve">
<rect x="19.101" y="17.144" fill="#FFFFFF" width="8.571" height="20"/>
<path fill="#FFFFFF" d="M27.672,8.929c0,2.958-1.92,5.356-4.286,5.356c-2.365,0-4.285-2.398-4.285-5.356S23.386,0,23.386,0
	S27.672,5.972,27.672,8.929z"/>
<rect x="61.957" y="17.144" fill="#FFFFFF" width="8.571" height="20"/>
<path fill="#FFFFFF" d="M70.529,8.929c0,2.958-1.92,5.356-4.285,5.356c-2.366,0-4.286-2.398-4.286-5.356S66.243,0,66.243,0
	S70.529,5.972,70.529,8.929z"/>
<rect x="40.357" y="17.144" fill="#FFFFFF" width="8.57" height="20"/>
<path fill="#FFFFFF" d="M48.927,8.929c0,2.958-1.92,5.356-4.285,5.356c-2.366,0-4.285-2.398-4.285-5.356S44.642,0,44.642,0
	S48.927,5.972,48.927,8.929z"/>
<g>
	<path fill="#FFFFFF" d="M78.649,72.271c-2.347-2.344-4.777-4.777-7.085-4.777c-2.307,0-4.735,2.434-7.084,4.777
		c-2.441,2.439-4.961,4.962-7.52,4.962s-5.08-2.522-7.52-4.962c-2.349-2.344-4.775-4.777-7.084-4.777
		c-2.31,0-4.737,2.434-7.087,4.777c-2.441,2.439-4.962,4.962-7.52,4.962c-2.559,0-5.078-2.522-7.52-4.962
		c-2.346-2.344-4.777-4.777-7.084-4.777c-1.808,0-3.691,1.498-5.553,3.272l3.119,19.495c0,5.357,4.38,9.737,9.735,9.737h48.683
		c5.354,0,9.734-4.38,9.734-9.737l2.65-15.278C80.548,74.169,79.594,73.217,78.649,72.271z"/>
</g>
<g>
	<path fill="#FFFFFF" d="M5.627,67.276c2.441-2.433,4.961-4.955,7.519-4.955c2.563,0,5.081,2.522,7.517,4.955
		c2.35,2.353,4.782,4.782,7.087,4.782c2.311,0,4.738-2.43,7.088-4.782c2.438-2.433,4.958-4.955,7.519-4.955
		c2.56,0,5.078,2.522,7.517,4.955c2.349,2.353,4.777,4.782,7.087,4.782c2.307,0,4.738-2.43,7.087-4.782
		c2.437-2.433,4.956-4.955,7.517-4.955c2.562,0,5.081,2.522,7.52,4.955c2.346,2.353,4.777,4.782,7.084,4.782
		c0.015,0,0.024,0,0.034-0.006c4.048-3.619,2.402-21.596,2.402-21.596c0-5.357-4.381-9.738-9.738-9.738H10.713
		c-5.357,0-9.737,4.38-9.737,9.738c0,0-2.375,17.489,2.138,19.229C4.159,70.092,4.795,68.111,5.627,67.276z"/>
</g>
</svg>
