<?xml version="1.0" encoding="utf-8"?>
<!-- Generator: Adobe Illustrator 15.1.0, SVG Export Plug-In . SVG Version: 6.00 Build 0)  -->
<!DOCTYPE svg PUBLIC "-//W3C//DTD SVG 1.1//EN" "http://www.w3.org/Graphics/SVG/1.1/DTD/svg11.dtd">
<svg version="1.1" id="Layer_1" xmlns="http://www.w3.org/2000/svg" xmlns:xlink="http://www.w3.org/1999/xlink" x="0px" y="0px"
	 width="100px" height="100px" viewBox="0 0 100 100" enable-background="new 0 0 100 100" xml:space="preserve">
<g id="Captions">
</g>
<g id="Your_Icon">
	<path fill="#FFFFFF" d="M95.534,43.158c-0.009-0.481-0.021-0.77-0.021-0.77s0.367-2.846-1.382-4.001L91,35.821V30h-6.493
		L51.715,2.434c0,0-0.939-1.671-2.164-0.046L16.965,30H10v5.559l-4.685,3.759c0,0-1.315,0.929-1.315,4.001c0,0.013,0,0.033,0,0.048
		L3.894,43.32L3.612,85.568l0.294,6.209c0,0-0.014,3.387,3.684,5.19c0.002,0.052,0.069,0.039,0.069,0.039l4.582,0.07l38.119-0.056
		c0,0,25.351-0.267,32.385,0.093c7.054,0.358,9.096-0.815,9.096-0.815c-0.034-0.033-0.075-0.07-0.112-0.104l0.187,0.109
		c3.771-1.787,3.772-5.021,3.772-5.021L96,85.075L95.534,43.158z M11,31h79v17.109l-2,2.394V33H13v19.027l-2-2.413V31z
		 M62.744,73.505c-11.143-8.512-22.272,0-22.272,0c-0.58,0.319-1.512,0.931-2.73,1.737L15,53.784V35h71v17.266L63.082,73.689
		C62.918,73.568,62.744,73.505,62.744,73.505z"/>
</g>
</svg>
