<?xml version="1.0" encoding="utf-8"?>
<!-- Generator: Adobe Illustrator 15.1.0, SVG Export Plug-In . SVG Version: 6.00 Build 0)  -->
<!DOCTYPE svg PUBLIC "-//W3C//DTD SVG 1.1//EN" "http://www.w3.org/Graphics/SVG/1.1/DTD/svg11.dtd">
<svg version="1.1" id="Layer_1" xmlns="http://www.w3.org/2000/svg" xmlns:xlink="http://www.w3.org/1999/xlink" x="0px" y="0px"
	 width="93.125px" height="100px" viewBox="0 0 93.125 100" enable-background="new 0 0 93.125 100" xml:space="preserve">
<path fill="#FCFCFC" d="M11.623,42.23c0,16.961,18.245,30.711,40.751,30.711c22.506,0,40.75-13.75,40.75-30.711H11.623z"/>
<path fill="#FCFCFC" d="M31.164,100c-7.395,0-13.411-6.018-13.411-13.41c0-7.395,6.016-13.408,13.411-13.408
	c7.394,0,13.409,6.014,13.409,13.408C44.573,93.982,38.558,100,31.164,100L31.164,100z M31.164,78.316
	c-4.563,0-8.275,3.711-8.275,8.272s3.712,8.274,8.275,8.274c4.562,0,8.273-3.713,8.273-8.274
	C39.438,82.027,35.726,78.316,31.164,78.316L31.164,78.316z"/>
<path fill="#FCFCFC" d="M73.05,100c-7.396,0-13.411-6.018-13.411-13.41c0-7.395,6.016-13.408,13.411-13.408
	c7.393,0,13.406,6.014,13.406,13.408C86.457,93.982,80.442,100,73.05,100L73.05,100z M73.05,78.316
	c-4.563,0-8.275,3.711-8.275,8.272s3.712,8.274,8.275,8.274c4.561,0,8.271-3.713,8.271-8.274S77.61,78.316,73.05,78.316
	L73.05,78.316z"/>
<g>
	<path fill="#FCFCFC" d="M11.623,38.787h5.131c0-0.006,0.001-0.011,0.001-0.018c-0.186-8.503-4.561-18.695-14.277-19.122
		c-3.312-0.146-3.298,4.991,0,5.136c6.664,0.292,9.022,8.544,9.142,13.986C11.621,38.775,11.622,38.781,11.623,38.787z"/>
	<path fill="#FCFCFC" d="M14.223,41.25c0.013,0,0.027,0,0.041,0H14.223z"/>
</g>
<path fill="#FCFCFC" d="M67.046,3.927L67.046,3.927c0.068-0.248,0.14-0.496,0.207-0.745c0.892-3.197-4.063-4.551-4.951-1.366
	c-0.063,0.222-0.123,0.444-0.186,0.666c-3.306,11.875-6.609,23.748-9.914,35.622c-0.065,0.24-0.092,0.466-0.097,0.683h41.019
	C93.125,22.926,82.31,9.379,67.046,3.927z"/>
</svg>
