<?xml version="1.0" standalone="no"?>
<!DOCTYPE svg PUBLIC "-//W3C//DTD SVG 1.1//EN" "http://www.w3.org/Graphics/SVG/1.1/DTD/svg11.dtd" >
<svg>
<metadata>
Created by FontForge 20120731 at Wed Mar 12 07:59:24 2014
 By World Wide Web Server
Copyright (c) Typographer Mediengestaltung, 2000. All rights reserved. Digitized and hinted by Dieter Steffmann, Kreuztal.
</metadata>
<defs>
<font id="HoneyScript-SemiBold" horiz-adv-x="219" >
  <font-face 
    font-family="Honey Script"
    font-weight="600"
    font-stretch="normal"
    units-per-em="1000"
    panose-1="3 0 7 3 0 0 0 0 0 0"
    ascent="800"
    descent="-200"
    x-height="359"
    cap-height="648"
    bbox="-249 -394 1139 920"
    underline-thickness="42"
    underline-position="-100"
    unicode-range="U+0020-FB02"
  />
<missing-glyph horiz-adv-x="500" 
d="M63 0v645h375v-645h-375zM125 63h250v520h-250v-520z" />
    <glyph glyph-name=".notdef" unicode="&#x131;" horiz-adv-x="500" 
d="M63 0v645h375v-645h-375zM125 63h250v520h-250v-520z" />
    <glyph glyph-name=".notdef" unicode="&#xfffd;" horiz-adv-x="500" 
d="M63 0v645h375v-645h-375zM125 63h250v520h-250v-520z" />
    <glyph glyph-name=".null" horiz-adv-x="0" 
 />
    <glyph glyph-name="nonmarkingreturn" horiz-adv-x="333" 
 />
    <glyph glyph-name="space" unicode=" " horiz-adv-x="190" 
 />
    <glyph glyph-name="exclam" unicode="!" horiz-adv-x="164" 
d="M159 631l1 -8q-41 -135 -41 -384q0 -92 7 -127q-14 -9 -18 -9q-9 0 -15 12v-1q-23 49 -23 140q0 10 9 182q3 70 16 211q7 13 26 13q18 0 38 -29zM137 26q0 -12 -9.5 -26t-18.5 -14q-15 0 -27 11.5t-12 28.5q0 13 12 35q12 24 23 24q19 0 26 -24q6 -12 6 -35z" />
    <glyph glyph-name="quotedbl" unicode="&#x22;" 
d="M195 605q-8 -45 -26 -82q-2 -5 -12 -25l-24 -46q-14 -26 -26 -26q-19 0 -19 20q0 11 16 44l30 65q1 13 32 82q29 -20 29 -29v-3zM148 619q-3 -20 -42 -109q-29 -65 -42 -65q-22 0 -22 22q0 15 46 97q0 2 31 86q29 -18 29 -30v-1z" />
    <glyph glyph-name="numbersign" unicode="#" horiz-adv-x="434" 
d="M426 486q0 -28 -28 -34l-89 -19l-9 -63l94 15q28 0 28 -18q0 -9 -9 -20t-19 -13l-102 -19l-7 -68q0 -16 -1 -19v-2q-16 -31 -42 -31q-17 0 -17 16l13 93l-64 -10l-12 -82q0 -15 -1 -18v-3q-9 -25 -42 -25q-19 0 -22 18l15 97l-55 -12q-14 -8 -30 -8q-27 0 -27 27
q0 25 28 35l94 17l9 54l-75 -16q-14 -8 -29 -8q-27 0 -27 27q0 25 28 35l112 24l13 83q5 33 28 33h3q23 0 23 -19q0 -11 -5 -43q-4 -25 -4 -43l63 12l12 89q5 33 26 33h4q1 -1 3 -1q16 -3 16 -32l-1 -8q-1 -9 -3 -28.5t-4 -42.5l83 15q29 0 29 -18zM191 408l-10 -58l64 11
l9 61z" />
    <glyph glyph-name="dollar" unicode="$" horiz-adv-x="246" 
d="M245 139q0 -67 -44 -96q-2 -1 -18.5 -8t-30.5 -12q0 -8 1 -12v-12q0 -37 -6 -68q-3 0 -6 -1h-7q-23 0 -25 35q0 3 -1.5 26.5t-3.5 44.5l-51 35q-27 26 -53 101q10 6 16 6q15 0 53 -47q37 -46 72 -46q18 0 30 15t12 36q0 41 -36 74v-1q-70 64 -75 74l1 -1q-41 56 -41 142
q0 128 74 140q2 50 12 89q33 0 34 -40q-1 -8 -1 -56q43 -26 59 -51q19 -28 19 -75q0 -109 -37 -109q-22 0 -27 59q0 16 -1 31l-2 31q-9 74 -38 74q-20 0 -30 -40q-8 -34 -8 -56q0 -73 34 -107l105 -106q20 -20 20 -69z" />
    <glyph glyph-name="percent" unicode="%" horiz-adv-x="454" 
d="M444 620q0 -18 -42 -61q-70 -73 -178 -265q-115 -204 -125 -286q-1 -15 -20 -15q-11 0 -19.5 11t-8.5 24q34 136 238 463q-2 -1 -4 -2.5t-3 -1.5q-29 -15 -49 -15q-36 0 -68 5q-12 -87 -19 -102v1q-18 -56 -62 -56q-84 0 -84 108q0 66 15 124q26 98 72 98q67 0 77 -127
q28 -11 44 -11q65 0 156 85q2 2 17 29q11 18 28 24q9 0 22 -10.5t13 -19.5zM415 162q0 -174 -86 -174q-82 0 -82 141q0 103 39 158q2 2 4 6q9 13 10 15h8l16 -2q56 0 79 -50q12 -27 12 -94zM372 176q0 86 -36 86q-15 0 -27 -64q-10 -50 -10 -89q0 -84 27 -84q46 0 46 151z
M115 453v2q0 2 0.5 7t0.5 12t0.5 17t0.5 22q-15 25 -17 68q0 9 -6 12q-39 -81 -39 -169q0 -62 21 -62q13 0 24 20q10 11 16 38v15q-1 5 -1 18z" />
    <glyph glyph-name="ampersand" unicode="&#x26;" horiz-adv-x="573" 
d="M564 236l1 -4q0 -9 -13 -25h-72q-11 0 -50 -51q-48 -62 -52 -66q14 -11 49 -53q13 -15 43 -28q0 -9 -12 -18t-22 -9q-17 0 -37 20l-54 57q-91 -69 -157 -69q-60 0 -100 39t-40 98q0 81 49 137l82 96q-27 86 -27 149q0 53 23 101q29 59 77 59q49 0 85 -40q36 -39 36 -89
q0 -49 -51 -112q-12 -15 -54 -61q-7 -7 -25 -28q13 -36 32 -83l200 1q79 0 89 -21zM310 96q-10 27 -61 107q-5 0 -33 3t-47 3q0 22 3 34q17 2 50 10q-18 42 -22 54q-107 -74 -107 -205q0 -27 25 -49l-1 1q28 -22 55 -22q26 0 77 21q55 22 61 43zM324 559q0 25 -17.5 46.5
t-38.5 21.5q-32 0 -50 -54q-14 -44 -14 -81q0 -36 18 -87q18 18 39 42q63 72 63 112zM374 169q12 19 20 36h-65q-6 -1 -22 -1h-3q20 -32 46 -65q1 2 4.5 6t8.5 11t11 14v-1z" />
    <glyph glyph-name="quoteright" unicode="&#x2019;" horiz-adv-x="101" 
d="M114 589q0 -23 -32 -93v1q-15 -47 -29 -47q-19 0 -21 24q17 39 49 159q33 -23 33 -44z" />
    <glyph glyph-name="parenleft" unicode="(" horiz-adv-x="192" 
d="M205 -80q1 -1 4 -3.5t5 -4.5l-2 -15q-11 -6 -22 -6q-63 0 -100 153q-29 122 -29 243q0 192 44 301l-1 -1q6 24 21 69q20 59 43 59q9 0 24 -13.5t15 -22.5l-24 -29l1 2q-20 -36 -46 -130q-31 -115 -31 -211q0 -90 17 -192q21 -124 60 -181q6 -8 21 -18z" />
    <glyph glyph-name="parenright" unicode=")" horiz-adv-x="150" 
d="M127 253q0 -61 -9 -143q-3 -27 -19 -122q-26 -101 -64 -101q-17 0 -26 24q5 5 12.5 13t10.5 11q49 105 49 318q0 123 -13 204q-11 69 -47 194q-13 25 -13 40q0 24 25 24q32 0 41 -29l31 -183q22 -128 22 -250z" />
    <glyph glyph-name="asterisk" unicode="*" horiz-adv-x="192" 
d="M150 535l4 -10q-3 -10 -12 -19q-18 0 -32 -3q7 -9 17 -23q5 -8 5 -11q0 -14 -20 -14q-12 0 -33 31q-12 -20 -34 -35q-12 13 -12 23l4 14q-24 -3 -18 -3q-19 0 -19 16q0 14 27 23v-1l23 7q-7 13 -16 41q9 12 17 12q6 0 29 -29q4 7 28 33q19 -19 19 -26q0 -3 -11 -20h3
q19 0 31 -6z" />
    <glyph glyph-name="plus" unicode="+" horiz-adv-x="356" 
d="M363 171l-5 -17q-53 -3 -143 -28v-53q0 -23 10 -57q-5 -14 -15 -14q-18 0 -29 15t-11 37q0 1 0.5 4t1 8.5t0.5 10.5q0 3 -1 18t-1 17q-20 -3 -34 -3q-39 0 -68 35q-28 34 -28 76q0 39 22 66t55 27q46 0 73 -56q1 6 14 53q4 15 27 15q22 0 22 -20q0 -3 -8 -21
q-7 -15 -7 -17q0 -1 -1.5 -7.5t-5 -23t-6.5 -31.5q-1 -11 -9 -39q24 6 42 12q45 15 58 15q18 0 43 -19zM174 169q0 35 -16 64q-18 36 -49 36q-12 0 -21.5 -13t-9.5 -29q0 -30 22 -50.5t54 -20.5q20 0 20 13z" />
    <glyph glyph-name="comma" unicode="," horiz-adv-x="126" 
d="M64 38q0 -4 -23 -48q-31 -61 -41 -61q-23 0 -23 21q0 10 27 61v-1q5 15 26 64q34 -16 34 -36z" />
    <glyph glyph-name="hyphen" unicode="-" horiz-adv-x="268" 
d="M261 151q0 -19 -42 -27q-42 0 -108 -3q-6 0 -39 -3h-6q-21 0 -21 11q0 17 27 22h1q1 0 3 0.5t4.5 0.5t6 0.5t7.5 0.5q14 2 27 2h5q21 0 34 1q50 2 51 2q3 1 7 1h-2l2 1q3 0 8 0.5t10 0.5l-2 -1q10 2 11 2q16 0 16 -11z" />
    <glyph glyph-name="period" unicode="." horiz-adv-x="94" 
d="M80 30q0 -35 -30 -35t-30 27q0 12 9.5 23t20.5 11q30 0 30 -26z" />
    <glyph glyph-name="slash" unicode="/" horiz-adv-x="371" 
d="M349 649l4 1q9 0 21 -10.5t12 -19.5q0 -16 -42 -61q-72 -79 -176 -265q-115 -205 -125 -286q-1 -15 -19 -15q-11 0 -18.5 11t-7.5 24q15 77 113 257q77 140 139 233l49 72q33 51 50 59z" />
    <glyph glyph-name="zero" unicode="0" horiz-adv-x="426" 
d="M385 343q0 -109 -48 -212q-62 -131 -160 -131q-69 0 -118 45q-29 26 -42 64v-1q-17 48 -17 133q0 117 37 237q53 173 143 173q26 0 82 -32l69 -40q24 -10 40 -112q14 -92 14 -124zM329 381q0 81 -25 135q-33 74 -102 74q-56 0 -98 -159q-35 -135 -35 -219q0 -63 19 -105
q25 -58 80 -58q86 0 129 127q32 96 32 205z" />
    <glyph glyph-name="one" unicode="1" horiz-adv-x="141" 
d="M112 569q0 -19 -6 -36h1q0 -2 -1.5 -6t-3 -11t-3.5 -14q-29 -279 -29 -404q0 -61 5 -99q0 -17 -20 -17q-47 0 -47 59q0 38 14 194q11 124 11 152v5q-1 1 -1 5q-18 17 -18 36q0 32 13 81q16 63 17 82q15 7 30 7q38 0 38 -34z" />
    <glyph glyph-name="two" unicode="2" horiz-adv-x="382" 
d="M374 26q0 -29 -27 -29v9l-1 -1q0 -5 -53 -5h-62q-37 0 -99 -13t-96 -13q-50 0 -50 44q0 11 27 31q37 25 40 30q74 83 128 199q60 128 60 227q0 33 -24 54t-60 21q-24 0 -35 -26q-8 -19 -22 -85l-12 -58q-1 -18 -6 -38q-15 -65 -46 -65q-33 0 -33 43q0 48 40 159
q23 65 31 78q24 41 65 41q68 0 122 -42q59 -45 59 -111q0 -96 -84 -236q-63 -106 -134 -187l121 2q28 0 82 -6q69 -7 69 -23z" />
    <glyph glyph-name="three" unicode="3" horiz-adv-x="386" 
d="M346 182q0 -95 -49 -156q-53 -66 -145 -66q-42 0 -107 38q-66 39 -66 81q0 46 22 47q19 2 48 -54q19 -36 25 -42q29 -23 71 -23q53 0 92 60v-1q36 56 36 116q0 32 -12 65q-17 34 -40 35l-95 -24q-23 8 -23 31q0 22 17.5 39.5t37.5 17.5q15 0 18 -1q2 0 3 -1h4q2 -1 9 -1
h3q26 21 41 74q13 42 13 86q0 80 -62 80q-43 0 -58 -26q-11 -20 -11 -65q0 -171 -56 -171q-19 0 -30 23q-10 17 -10 39q0 57 38 153q19 47 37 65q25 28 70 28q64 0 107 -31q47 -35 47 -97q0 -84 -80 -179q53 -27 75 -54q30 -35 30 -86z" />
    <glyph glyph-name="four" unicode="4" horiz-adv-x="447" 
d="M425 202q0 -31 -58 -31q-15 0 -32 1q-16 1 -32 1q-11 0 -12 -1q-3 -16 -5 -64q0 -4 -1 -27.5t-1 -32.5v-2q0 -18 9 -40q5 -13 5 -18q0 -3 -2 -3l-8 -8h18q0 -17 -35 -17q-45 0 -45 81q0 30 1 37v-1q0 3 1 18t1 18v61q-1 1 -9 1q-28 0 -80 -11q-67 -16 -109 -19
q-40 55 -40 73q0 17 33 68q46 70 71 117q45 83 93 152l12 17q9 15 18 28q22 34 45 36q19 -2 48 -23q30 -21 30 -41q0 -11 -7 -40q-10 -29 -10 -39q-30 -228 -31 -264l98 -2q34 -1 34 -25zM251 524q0 15 -1 18q-10 -14 -39 -54l-59 -88q-39 -56 -61 -107q-27 -62 -27 -73
q0 -4 17 -4q12 0 39 3h-1q25 3 41 3q2 0 7 0.5t14.5 1t18.5 0.5q10 1 32 3q3 81 12 172q7 69 7 125z" />
    <glyph glyph-name="five" unicode="5" horiz-adv-x="414" 
d="M372 176q0 -92 -57.5 -147t-151.5 -55q-44 0 -106 21v-1q-78 24 -78 67q0 27 33 27q14 0 61 -36q40 -31 71 -31q72 0 118 55q43 52 43 126q0 48 -22 73v-1q-23 29 -67 29q-38 0 -76 -19q-16 -8 -72 -45q-18 0 -33 18.5t-15 38.5q0 28 7 71q6 41 6 68v68h-1q1 43 13 70
q5 14 140 28q89 9 117 9q41 0 50 -16q0 -15 -18.5 -30.5t-35.5 -17.5q-32 -3 -112 -12q-70 -9 -83 -21q-18 -132 -21 -180q4 2 18.5 6.5t24.5 7.5h-1q37 14 52 14q81 0 138 -51h-1q59 -50 59 -134zM51 503h-6l4 -2z" />
    <glyph glyph-name="six" unicode="6" horiz-adv-x="401" 
d="M364 211q0 -86 -43 -144q-48 -67 -129 -67h-2q-95 0 -145 65q-45 59 -45 156q0 105 45 254q58 193 139 193q24 0 72 -21q47 -19 61 -38q22 -31 22 -82q0 -39 -19 -87q-46 0 -53 28q-3 12 -3 44q0 54 -6 71q-11 30 -41 30q-27 0 -52 -45v1q-44 -83 -54 -107
q-22 -52 -32 -119q62 59 122 59q73 0 120 -60q43 -55 43 -131zM300 226q0 53 -22 85q-25 40 -75 40q-69 0 -106 -51q-32 -44 -32 -116q0 -137 121 -137q51 0 85 67q29 58 29 112z" />
    <glyph glyph-name="seven" unicode="7" horiz-adv-x="322" 
d="M332 630l2 -6q0 -16 -15 -36q-25 -34 -32 -46q-221 -395 -221 -495q0 -12 12 -31q-72 0 -72 32q0 59 108 305l105 239q-8 2 -28 2q-18 0 -90 -8q-31 -3 -61 -16h1l-36 -14q-24 0 -24 32q0 38 44 49q5 2 92 13q98 12 173 12q16 0 42 -32z" />
    <glyph glyph-name="eight" unicode="8" horiz-adv-x="475" 
d="M432 611q0 -38 -38 -82h1q-55 -66 -123 -117q-8 -6 -37 -28q78 -48 117 -85q67 -64 67 -135q0 -78 -70 -127q-64 -44 -143 -44q-80 0 -140 45q-66 50 -66 128q0 60 47 127q28 39 81 92q-63 62 -63 119q0 63 43 121q47 62 108 62q43 0 90 -43q39 -34 56 -48q18 15 26 41
v-2q0 2 1.5 13.5t2.5 19.5q40 0 40 -57zM352 189v1q0 78 -162 158q-136 -122 -138 -192q-1 -44 46 -73q40 -24 88 -24q63 0 112 32q54 37 54 98zM252 484q61 55 74 72q-28 47 -41 59q-17 17 -45 17q-41 0 -80 -57v1q-32 -50 -32 -78q0 -25 16 -50t34 -25q3 0 74 62v-1z
M232 387l-2 1l2 -2v1z" />
    <glyph glyph-name="nine" unicode="9" horiz-adv-x="387" 
d="M378 611l-5 -8q-6 -4 -11 -36l-31 -227q-14 -107 -14 -216q0 -40 1 -47q2 -11 19 -62q-8 -12 -17 -15l-7 17q-11 -4 -21 -14q-35 15 -37 110q0 21 3 65t3 65q-15 0 -39 -7t-39 -7q-81 0 -131 42q-52 43 -52 125q0 76 54 168q63 107 133 107q16 0 105 -56q2 32 19 32
q10 0 20 -7q47 -9 47 -29zM289 548q-1 4 -29 30q-32 31 -56 31q-49 0 -97 -98q-44 -90 -44 -150v-2q0 -76 107 -76q23 0 52 7h-1q30 8 41 19zM304 0q-14 0 -12 3q2 -1 12 -3z" />
    <glyph glyph-name="colon" unicode=":" horiz-adv-x="111" 
d="M99 229q0 -34 -28 -34q-12 0 -21.5 11.5t-9.5 26.5q0 12 7 23.5t15 11.5q37 -12 37 -39zM91 36q0 -35 -29 -35q-27 0 -27 35q0 13 8.5 24t18.5 11q29 0 29 -35z" />
    <glyph glyph-name="semicolon" unicode=";" horiz-adv-x="156" 
d="M106 26q0 -7 -32 -50q-40 -54 -55 -54q-18 0 -18 21q0 13 18 33q23 23 29 35v-1q2 5 9.5 23t13.5 31q35 -15 35 -38zM120 221q0 -31 -33 -31q-36 0 -36 36q0 22 30 38q17 0 28 -12.5t11 -30.5z" />
    <glyph glyph-name="less" unicode="&#x3c;" horiz-adv-x="362" 
d="M321 416v-6q0 -21 -35 -42q-94 -80 -211 -126q69 -29 168 -38q74 -6 74 -29v-1q0 -20 -42 -20q-64 0 -119 11q-37 7 -108 29q-48 21 -48 54v5q0 18 15 27q8 4 32 7q13 2 74 31q16 7 99 61q82 52 84 52q14 0 17 -15z" />
    <glyph glyph-name="equal" unicode="=" horiz-adv-x="358" 
d="M305 309q0 -11 -14.5 -22t-30.5 -14q-18 0 -87 -4q-58 -3 -121 -3h-4q-23 0 -23 15q0 23 27 30q12 2 53 4q14 0 28 1q6 1 18.5 1.5t19.5 0.5l26 1q52 2 64 2h-2q2 0 5 0.5t7.5 1t8.5 0.5h6q19 0 19 -14zM305 210q0 -26 -45 -37q-18 0 -87 -4q-58 -3 -121 -3h-4
q-23 0 -23 15q0 24 31 31q8 2 49 4q14 0 28 1l119 3q2 0 3 1h4l21 3h6q19 0 19 -14z" />
    <glyph glyph-name="greater" unicode="&#x3e;" horiz-adv-x="361" 
d="M339 224l1 1q-5 -26 -36 -26q-16 0 -19 1q-71 -6 -181 -51q-51 -22 -61 -22h-1q-17 0 -17 17v4q0 17 47 34q28 13 62 27q64 27 128 41q-58 34 -173 66q-61 16 -61 39v4q5 14 28 14h7q2 -1 8 -1q84 -9 156 -45l74 -37q39 -26 39 -56q0 -8 -1 -10z" />
    <glyph glyph-name="question" unicode="?" horiz-adv-x="371" 
d="M343 541q0 -54 -23 -102q-9 -20 -65 -88q-65 -78 -105 -134l-17 -62q2 -10 8 -16q3 -7 3 -12q0 -18 -22 -18q-30 0 -30 64q0 59 54 133q1 1 61 83q5 7 35 47q50 70 50 134q0 60 -53 60q-58 0 -147 -110q-38 -48 -58 -82q-24 -44 -24 -86q0 -2 0.5 -5t1 -9t0.5 -10
q-12 -5 -15 -5q-28 0 -28 43q0 114 119 235q79 79 148 79q52 0 82 -45q25 -38 25 -94zM163 41q0 -20 -12.5 -35t-29.5 -15q-36 0 -36 36q0 18 10.5 33t25.5 15q42 0 42 -34z" />
    <glyph glyph-name="at" unicode="@" horiz-adv-x="525" 
d="M340 179q-5 5 -15 23q-22 -73 -66 -73q-65 0 -65 139v13q0 41 25 129q30 108 57 108q49 0 62 -28l16 -32l39 -13q-33 -102 -33 -185v-3q0 -9 11 -36v1q11 -20 22 -20q12 0 19 7q25 25 40 76q13 42 13 87q0 74 -39 136q-45 71 -115 71h-2q-59 0 -117 -58
q-109 -109 -109 -287v-5q0 -82 43 -137q47 -62 126 -62h3q65 0 130 65q21 21 33 21q21 0 21 -26q0 -1 -0.5 -4t-2 -10t-2.5 -14q-76 -73 -169 -73q-109 0 -177 62q-67 63 -67 171v4q0 197 130 330q66 68 157 68h3q90 0 151 -82q55 -74 55 -169q0 -51 -13 -102
q-16 -65 -41 -91t-71 -27q-23 0 -52 26zM325 411l-12 16q-3 38 -14 38q-10 0 -39 -107q-16 -57 -16 -144q0 -11 5.5 -25t11.5 -14q18 14 35 71q17 54 17 80q0 13 5 43q4 21 7 42z" />
    <glyph glyph-name="A" unicode="A" horiz-adv-x="657" 
d="M664 22l3 -6q0 -18 -27 -18q-16 0 -40 4q-37 46 -76 216q-115 -6 -215 -13q-22 -39 -80 -131q-61 -96 -131 -96q-86 0 -123 79l6 6q1 1 13 10q1 0 2 1h2q9 -2 21 -2q0 -29 38 -29q71 0 119 52q29 32 67 106q-2 1 -10 1l-18 -3q-16 -2 -18 -2q-33 0 -33 24q0 14 109 27
q51 86 109 237q55 141 55 169v2q-1 1 -1 2q-3 4 -3 10q0 23 40 23q16 0 44 -19q30 -20 30 -33q0 -5 -2 -23t-2 -23q0 -128 41 -325q34 -163 58 -224q0 -2 16 -17l2 -1zM503 330q-31 189 -32 220q-1 4 -1.5 13t-0.5 14v-1q-1 4 -2 4q-16 -37 -63 -163q-38 -104 -69 -161
l180 4q-7 37 -12 70z" />
    <glyph glyph-name="B" unicode="B" horiz-adv-x="507" 
d="M551 562q0 -38 -39 -82q-33 -36 -73 -58q-13 -8 -93 -45q133 -36 133 -163q0 -79 -77 -159t-155 -80q-34 0 -97 22q-31 10 -43 19q-3 -26 -17 -26q-49 1 -49 105v41q0 23 1 30v15q0 217 12 373l4 52h-14q-5 -1 -18 -1h-3q-27 0 -42 28v4q0 15 77 27q2 42 27 42
q33 0 39 -29q113 17 212 17q73 0 133 -28q82 -37 82 -104zM420 239q0 93 -148 93q-128 0 -160 -38q-11 -14 -11 -64q0 -41 1 -65l2 -63q0 -30 -1 -35q7 -1 57 -27q42 -20 50 -20q73 0 145 81q65 74 65 138zM487 579q0 61 -144 61q-19 0 -113 -11q-35 -4 -105 -16
q-14 -124 -14 -252q70 8 237 67q38 13 87 62q52 52 52 89z" />
    <glyph glyph-name="C" unicode="C" horiz-adv-x="408" 
d="M388 138l9 5q22 -3 22 -21q0 -1 -1.5 -5.5t-3.5 -11.5t-5 -15q-34 -44 -98 -73q-63 -27 -123 -27q-94 0 -144 68q-44 62 -44 159q0 107 41 241q51 164 128 214h-1q23 14 61 14q58 0 107 -31q38 -24 51 -54q10 -21 10 -76q0 -35 -11 -98q-17 -86 -42 -86q-18 0 -28 22
q-9 18 -9 37q0 26 17 92v-1q16 63 16 91q0 26 -37 44q-32 15 -61 15q-66 0 -121 -157q-53 -151 -53 -292q0 -154 109 -154q104 0 195 73z" />
    <glyph glyph-name="D" unicode="D" horiz-adv-x="529" 
d="M544 451q0 -76 -34 -184q-32 -103 -72 -174q-67 -115 -143 -115q-22 0 -43 15l-34 23q-5 3 -28 12v-4q3 -8 3 -12q0 -18 -22 -18q-38 0 -38 42q0 20 -4 59q-2 30 -2 63q0 135 13 261l13 130q-81 -31 -133 -66h1q-2 -2 -2 -8q-1 -16 -5 -27h-5q-1 -1 -5 -1q-7 0 -15 10
t-8 21q0 39 88 85q7 4 20 10t33.5 16t37.5 18q-2 37 -7 43q0 28 34 28q44 0 52 -35q65 17 95 17q53 0 75 -8v1q29 -7 61 -42q42 -46 50 -61q24 -40 24 -99zM478 472q0 78 -42 109q-37 26 -117 26q-61 0 -87 -21q-23 -75 -46 -492l42 -36h-1q29 -20 47 -20q88 0 152 180
q52 144 52 254z" />
    <glyph glyph-name="E" unicode="E" horiz-adv-x="576" 
d="M587 114q0 -57 -127 -97q-98 -29 -165 -29q-115 0 -194 40q-101 53 -101 157q0 64 47 116q35 39 104 75q-37 14 -53 30q-31 28 -31 79q0 105 155 156q110 36 231 36q48 0 65 -7l-1 1q41 -14 41 -55q0 -39 -25 -39q-12 13 -35 29l1 -1q-19 8 -42 8q-101 0 -205 -29
q-139 -40 -139 -111q0 -28 44 -43h-1q33 -12 74 -12q16 0 49 3q29 4 49 4h-1q45 3 66 3h12q20 -14 20 -35v-5q0 -25 -28 -35q-23 14 -31 14q-83 0 -185 -41q-135 -56 -135 -145q0 -71 92 -106q68 -25 161 -25q39 0 92 9q61 10 87 23l56 29v33q53 0 53 -30z" />
    <glyph glyph-name="F" unicode="F" horiz-adv-x="431" 
d="M594 634q0 -16 -21 -18l2 1q-10 -2 -14 -2q-1 0 -10.5 0.5t-23.5 1t-25 0.5q-38 0 -94 -6l-129 -14q-41 -158 -42 -254q3 1 28 1q65 0 114 -4q3 -12 3 -17q0 -31 -78 -33q-38 -2 -72 -9q-1 -13 -1.5 -44.5t-0.5 -47.5q-1 -17 -1 -55q0 -98 15 -134q-23 -4 -30 -4
q-43 0 -43 70v171q0 34 3 55q-47 2 -105 10q-3 3 -8 12q0 1 1 1v1q2 8 2 10q30 11 70 11q34 0 39 -1l22 253q-11 -1 -57.5 -6.5t-83.5 -9.5q-7 -2 -13 -6l-2 -1q-2 -2 -5 -4l-6 -4q-2 -2 -7 -4q-11 0 -31 29v3q-1 2 -1.5 5.5t-0.5 6.5q0 28 43 32q7 0 37.5 2.5t55.5 4.5
q236 22 320 22q10 0 41.5 -2t40.5 -2h22q46 0 46 -21z" />
    <glyph glyph-name="G" unicode="G" horiz-adv-x="506" 
d="M524 292q0 -18 -90 -33q-2 -24 -11 -73q-15 -78 -84 -133q-70 -56 -147 -56q-95 0 -146 58v-1q-46 55 -46 153q0 189 110 374q26 44 49 64q28 25 77 25q28 0 124 -43q27 -12 47 -44t20 -63q0 -144 -41 -144q-45 0 -45 80q0 14 3 46q3 31 3 47q0 25 -34 47t-60 22
q-40 0 -88 -90q-97 -181 -97 -334q0 -149 112 -149q63 0 128 56v-1q64 57 64 120q0 28 -10 35q-198 0 -271 -27q0 48 39 55q164 34 304 34q90 0 90 -25z" />
    <glyph glyph-name="H" unicode="H" horiz-adv-x="507" 
d="M527 285q0 -16 -31 -25q-12 -1 -32 -6q-11 0 -66 -5q0 -5 -1 -16q0 -26 -1 -39q0 -14 -1 -31q-1 -13 -1 -31q0 -80 37 -126q-35 -21 -56 -21q-11 0 -71 62q-29 29 -104 85q-72 54 -93 62q-4 -41 -4 -84q0 -57 13 -110q-15 -3 -24 -3q-32 0 -39 19l-8 53q-3 20 -3 58
q0 27 3 68l2 27h-32q-34 0 -34 27t33 34l35 5q22 182 22 274q0 38 -9 76q50 -5 67 -21t17 -57q0 -46 -12 -132q-14 -92 -15 -131q3 -1 37 -1q26 0 55 1l132 3q0 10 1 12q0 2 1.5 21t3.5 36l19 250q-4 15 -4 26q0 32 38 32q23 0 41.5 -15t18.5 -35q0 -14 -10 -37l-2 -6
q-1 -6 -3 -11v1l-7 -21l1 1q-7 -36 -24 -155l-14 -97q18 -1 42 -2.5t31 -1.5q13 7 27 7q24 0 24 -20zM253 156q49 -34 89 -83l-1 172q-30 3 -116 3q-66 0 -84 5v-4q-31 -1 -31 -7q1 0 4 -2t13.5 -7.5t24.5 -12.5v1q32 -19 87 -57v1q3 -1 14 -9z" />
    <glyph glyph-name="I" unicode="I" horiz-adv-x="285" 
d="M325 632l-4 -13q-37 -16 -43 -17l-89 -16q-19 -65 -31 -216q-11 -143 -11 -255q0 -14 2 -70l53 2q59 0 59 -27q-14 -18 -89 -27q-59 -8 -97 -8q-96 0 -98 20q-1 9 13.5 15t43.5 10l58 7q0 1 -0.5 3.5t-1 7.5t-0.5 11l-3 36q0 58 4 135l6 135l7 217q-36 0 -114 5
q28 28 57 44q161 17 178 17h40l39 -1q15 0 21 -15z" />
    <glyph glyph-name="J" unicode="J" horiz-adv-x="341" 
d="M327 621h-8q1 -5 0 -15q-7 -56 -14 -140q-8 -102 -8 -126q0 -23 2 -111q1 -22 1 -56q0 -76 -8 -106q-19 -67 -77 -67q-57 0 -145 45q-98 50 -98 97v3q0 28 29 28q16 0 52 -36q7 -9 22.5 -26t23.5 -25q35 -27 66 -27q55 0 70 83q7 32 7 124v81v50q-1 20 -1 38v17l-2 135
q0 7 -7 24q-3 11 -3 14q0 33 36 33q62 0 62 -37z" />
    <glyph glyph-name="K" unicode="K" horiz-adv-x="449" 
d="M491 605l-1 -6q-26 -45 -72 -86q-6 -8 -55 -50l-31 -26q-87 -73 -180 -135q-58 -38 -64 -40q0 -32 139 -107q140 -74 182 -75q20 -4 30 -7q31 -9 32 -18q-1 -1 -8 -8.5t-10 -10.5l1 1q-14 -20 -29 -20q-9 0 -89 33q-107 45 -250 122q0 -85 1 -98q1 -40 14 -54
q0 -20 -27 -20q-48 0 -48 91v60q0 9 1 16v17v21q-30 21 -42 44l8 29q16 9 41 21q0 37 9 123q7 63 7 113v14l-4 80q34 54 52 54q34 0 34 -41h-9q0 -33 -8 -99l-13 -99l-11 -114q44 28 74 48q229 158 287 276q14 0 26 -16.5t13 -32.5z" />
    <glyph glyph-name="L" unicode="L" horiz-adv-x="653" 
d="M693 -43l7 -14q-10 -21 -45 -21q-46 0 -123 50h1q-95 60 -163 102q-21 -40 -36 -54q-47 -44 -136 -44q-80 0 -144 61t-64 140q0 25 20.5 47t44.5 22q70 0 161 -32q19 -6 119 -52q10 57 12 152q-1 0 -6 -1t-11 -2t-10 -1h1q-32 -5 -40 -5q-51 0 -51 25q0 12 19 31
q14 -11 33 -11q41 0 70 13l32 177q13 77 43 123q25 40 57 40q51 0 106 -94l-1 1q1 -3 5 -9q1 -2 22 -37v1q10 -19 10 -52q0 -29 -37 -69q-54 -59 -169 -108q-5 -69 -32 -213q16 -11 111 -78q124 -88 183 -88h11zM226 21q38 0 66.5 24.5t30.5 61.5q-131 90 -236 90
q-37 0 -37 -21q0 -56 60 -105q61 -50 116 -50zM555 534q0 30 -12 61q-13 40 -38 40q-41 0 -78 -244q128 53 128 143z" />
    <glyph glyph-name="M" unicode="M" horiz-adv-x="735" 
d="M747 -43l6 -13q-13 -27 -29 -27q-63 0 -92 152q-18 98 -18 190q0 38 1 69q2 62 2 70v13q-35 -122 -58 -201q-63 -210 -127 -210q-78 0 -112 213q-4 40 -8 68q-2 5 -18 132q-10 -24 -36 -110q-104 -341 -246 -341q-52 0 -94 54l19 13q56 -13 80 -13q27 0 58 28v-1
q24 18 45 56q57 101 101 247q48 156 48 261q0 53 39 53q23 0 71 -36q-12 -30 -12 -139q0 -157 19 -274q22 -142 54 -142q21 0 83 180q54 158 78 283q0 3 0.5 11.5t1 24t0.5 29.5q2 39 21 46q90 0 95 -36q-16 -36 -29 -190q-12 -138 -12 -204q0 -236 69 -256z" />
    <glyph glyph-name="N" unicode="N" horiz-adv-x="516" 
d="M535 674q0 -6 -12 -34q-6 -10 -6 -12l1 1q-26 -116 -41 -282q-14 -166 -14 -287q1 -4 3 -17v1q0 -5 0.5 -9t1.5 -6v-2q0 -30 -53 -30q-44 0 -70 39v-1q-8 15 -33 91h1q-46 130 -85 373q-5 -23 -31 -212q-18 -130 -47 -207q-40 -102 -125 -102q-70 0 -70 40q0 25 22 25
q9 0 23 -14l-6 -6t-2 -1q6 -2 15 -2q103 0 156 351q29 198 29 273q0 16 -1 17q23 33 48 33q60 0 60 -45q0 -250 40 -420q37 -162 67 -162q8 0 9 43l6 131q1 33 23 257q13 142 58 202q33 -4 33 -26z" />
    <glyph glyph-name="O" unicode="O" horiz-adv-x="416" 
d="M412 420q0 -154 -36 -264q-56 -168 -180 -168q-96 0 -150 80q-46 70 -46 171q0 258 128 428q26 33 50 33q9 0 21 -6q7 3 14 3q199 -12 199 -277zM358 425q0 85 -22 141q-31 82 -103 82q-67 0 -120 -161q-43 -129 -43 -246q0 -205 119 -205q169 0 169 389z" />
    <glyph glyph-name="P" unicode="P" horiz-adv-x="477" 
d="M548 532q0 -122 -158 -205q-108 -56 -249 -83l-4 -130q-3 -83 49 -114q-25 0 -39 -2q-2 -1 -11 -1q-32 0 -42 19q-6 11 -11 46q-5 45 -5 172q-9 0 -22 4l7 38l18 5v16q0 67 6 171l6 104q-28 -6 -60 -22q-24 -11 -44 -33q-5 30 -5 41q0 27 13 40h-1q8 12 98 38l4 43
q15 15 37 15h4q39 0 40 -40q98 22 173 22q77 0 131 -33q65 -39 65 -111zM478 554q0 71 -106 71q-38 0 -135 -17q-33 -7 -52 -11l-15 -3q-12 -40 -19 -163l-9 -136q70 19 117 36q89 33 129 66q90 73 90 157z" />
    <glyph glyph-name="Q" unicode="Q" horiz-adv-x="395" 
d="M401 412q0 -100 -22 -211q-28 -151 -100 -201q54 -17 96 -17q7 0 26 10l-11 -39q-8 -8 -19 -8q-24 0 -85 8t-85 8q-77 0 -122 -13q-5 -1 -19 -9h1q-15 -12 -23 -12q-16 0 -16 21q0 25 38 40q3 1 36 13q-96 74 -96 285q0 131 56 275q29 74 46 92q34 39 86 39h2
q57 0 122 -47q67 -47 80 -100q9 -34 9 -134zM335 381q0 157 -27 209q-2 3 -29 17q-8 6 -25 21q-10 7 -27 7q-36 0 -60 -25h1q-19 -21 -42 -74q-58 -134 -58 -289q0 -227 122 -227q80 0 119 144q26 99 26 217z" />
    <glyph glyph-name="R" unicode="R" horiz-adv-x="541" 
d="M615 524q0 -33 -56 -92q-46 -48 -84 -68q-142 -75 -222 -98q12 -26 39 -63q35 -48 55 -70q31 -34 74 -60q52 -32 88 -32q31 9 34 9q15 0 15 -22q-26 -15 -50 -28q-84 0 -169 69h1q-42 34 -133 138q-27 38 -31 38t-9 -42q0 -5 -2 -51q-1 -23 -1 -51v-3q0 -40 11 -108
q-8 -23 -23 -23q-20 0 -34 27v-1q-9 13 -9 36v27q0 94 4 186q7 155 7 214q0 16 3 47q4 28 4 46q-13 -3 -63 -26q-48 -23 -48 -29q0 4 9 -9q-14 -14 -23 -14q-21 0 -21 30q0 36 74 71l72 33q0 2 1 5v30q0 17 3 29q34 -6 46 -13.5t18 -25.5q171 30 232 30q65 0 121 -32
q67 -37 67 -104zM535 544q0 66 -106 66q-89 0 -232 -41q-3 -52 -15 -185q-7 -67 -7 -82q33 4 105 28q68 24 102 40q55 27 99 71q54 53 54 103z" />
    <glyph glyph-name="S" unicode="S" horiz-adv-x="410" 
d="M402 71q0 -50 -56 -76q-45 -20 -95 -20q-145 0 -249 56q-25 13 -25 37q0 18 22 25q12 -11 29 -29q3 -3 59 -16q86 -21 152 -21q93 0 93 51q0 29 -21 38l-219 96q-72 31 -72 125q0 89 80 255q40 84 97 84q61 0 110 -48q50 -46 55 -107q5 -82 5 -125q0 -68 -31 -68t-31 42
q0 81 -9 154q-4 32 -24 63q-24 38 -51 38q-41 0 -88 -120q-43 -108 -43 -168q0 -29 16.5 -55t41.5 -37l171 -73q83 -35 83 -101z" />
    <glyph glyph-name="T" unicode="T" horiz-adv-x="541" 
d="M709 612q0 -24 -30 -24q-127 0 -263 -12q-3 -19 -25 -181q-30 -235 -30 -310v-11q0 -32 9 -90q-21 2 -46 14q-21 22 -21 80q0 85 14 233q16 159 16 229v15q-1 4 -1 13h-14q-33 0 -77 -4q-210 -16 -210 -49q0 -21 78 -21q95 0 206 34q-32 -54 -61 -62q-94 -23 -157 -23
q-112 0 -112 88q0 50 53 65l125 16q88 11 284 20q140 7 226 7q36 0 36 -24v-3z" />
    <glyph glyph-name="U" unicode="U" horiz-adv-x="523" 
d="M531 582l2 -12q-8 -11 -17 -44q-10 -36 -11 -50l-31 -304v-97q0 -82 28 -101q-20 -15 -37 -15q-38 0 -46 83q-1 3 -4 88q-28 -58 -43 -78q-46 -64 -107 -64q-160 0 -160 248q0 85 31 219q-58 -40 -93 -40q-30 0 -76 49q34 -6 44 -6q110 0 203 207q65 -20 65 -44
q0 -11 -18 -32l-11 -13q-5 -5 -8 -11q-71 -174 -71 -337q0 -85 13 -128h-1q23 -68 82 -68q50 0 93 88q29 57 49 131q37 138 37 263q0 48 -4 63v-1q-3 9 -3 23q9 18 28 18q22 0 66 -35z" />
    <glyph glyph-name="V" unicode="V" horiz-adv-x="530" 
d="M532 629q0 -233 -45 -433q-53 -230 -143 -230q-83 0 -120 103q-26 75 -26 165q0 66 10 162q12 120 12 160q0 58 -21 58q-32 0 -95 -91q-63 -92 -73 -128q-1 -3 -11 -41q-7 -28 -19 -28q-19 0 -19 29q0 73 78 201q72 115 135 115q39 0 68 -42q26 -38 26 -79
q0 -63 -13 -174q-12 -115 -12 -173q0 -48 17 -111q21 -73 54 -73q57 0 105 228q42 199 42 381q0 4 1 9v3q0 2 1 4v3q-1 2 -1 4v-1q0 4 -9 17q20 15 29 15q29 0 29 -53z" />
    <glyph glyph-name="W" unicode="W" horiz-adv-x="540" 
d="M538 510q0 -160 -30 -301q-47 -221 -148 -221q-48 0 -79 48q-14 24 -36 92q-37 -157 -111 -157q-134 0 -134 342q0 88 13 264q-3 12 -3 24q0 44 32 44q20 0 38.5 -14.5t18.5 -31.5q0 -31 -12 -74q-16 -58 -17 -72q-9 -87 -9 -210q0 -60 14 -127q20 -89 54 -89q29 0 58 68
q23 53 30 101q19 124 24 330l-1 8q-1 8 -2 18t-1 15q28 11 43 11q29 0 53 -29q-40 -40 -40 -325q0 -50 14 -114q18 -78 51 -78q52 0 94 194q34 154 35 244q0 40 -1 75l-2 74q0 1 -6 18t-6 27q0 19 20 19t30 -21v1q16 -28 16 -153z" />
    <glyph glyph-name="X" unicode="X" horiz-adv-x="479" 
d="M474 543q-140 -164 -166 -214q39 -168 73 -231q2 -3 40 -77l-1 1q25 -30 76 -32q0 -20 -9 -29q0 2 -5 -3v1q-8 -2 -17 -2q-71 0 -122 79q-42 67 -86 218q-135 -207 -136 -243l5 -41q-61 4 -61 44q0 36 87 169q81 126 85 141q-26 147 -36 182q-20 66 -41 66q-38 0 -80 -91
q-37 -78 -37 -114v-3q5 -18 5 -22q0 -23 -21 -23q-27 0 -27 39q0 82 42 167q50 99 107 99q72 0 108 -80q14 -31 37 -142q111 155 222 248q20 -11 20 -22q0 -18 -28 -47l-35 -38h1z" />
    <glyph glyph-name="Y" unicode="Y" horiz-adv-x="385" 
d="M392 633v-3q-20 -74 -31 -146q-15 -99 -15 -252q0 -70 4 -125q6 -92 6 -125q0 -84 -49 -160q-55 -85 -137 -85q-42 0 -126 32q-98 38 -98 76q0 28 34 28q8 0 66 -45t89 -45q158 0 158 273q0 35 -4 107q-19 -59 -33 -84q-43 -79 -108 -79q-139 0 -139 203q0 78 10 174
q12 121 12 172q0 1 -1 16.5t-1 20.5q0 41 27 41q11 0 56 -39q0 -6 -3 -19q0 -1 -4 -17q-1 -2 -2 -7t-2 -8l1 2l-2 -14q-28 -161 -28 -320q0 -164 68 -164q48 0 92 90q44 92 63 250q6 54 18 259q1 27 33 27h3q43 0 43 -34z" />
    <glyph glyph-name="Z" unicode="Z" horiz-adv-x="448" 
d="M471 539q0 -21 -41 -41l-5 -3q-28 -14 -249 -259q-27 -30 -74 -94q-56 -77 -56 -91q8 -2 27 -2q35 0 106 12q68 13 107 13q36 0 79 -6q68 -9 68 -30q0 -25 -33 -25q-8 0 -33 3t-32 3q-38 0 -104 -10l-97 -13q-6 0 -43 -10q-2 -1 -8 -3q-31 -10 -51 -10q-25 0 -39 23
q-12 16 -12 39q0 35 64 130q46 67 95 124h-1l147 169q77 89 77 95q0 3 -25 3q-122 0 -245 -35q-23 -8 -23 -14v-10q-41 0 -41 25q0 32 56 50q34 11 103 24q142 27 192 27q37 0 64 -24t27 -60z" />
    <glyph glyph-name="bracketleft" unicode="[" horiz-adv-x="262" 
d="M251 -58q0 -32 -30 -32q-5 0 -60 -5q-32 -7 -59 -7q-24 0 -24 20v364q0 68 -5 216l-5 145q0 28 48 28h105q25 0 25 -23q0 -25 -12 -37v1q-6 -6 -12 -6q-8 0 -19 4q-5 2 -10.5 3.5t-8.5 2.5t-4 1q-24 0 -48 -8q-8 -53 -8 -88v-239q0 -245 16 -322q3 -2 13 -3q1 -1 6 -1
q2 0 9.5 1t11.5 1t23.5 2t22.5 2q25 0 25 -20z" />
    <glyph glyph-name="backslash" unicode="\" horiz-adv-x="87" 
d="M20 38l6 3q10 0 38 96q23 85 34 130q8 29 21 29q16 0 16 -23q0 -32 -35 -146q-40 -127 -69 -127q-28 0 -28 16q0 13 14 21h-1q3 0 4 1z" />
    <glyph glyph-name="bracketright" unicode="]" horiz-adv-x="244" 
d="M218 -67q0 -28 -48 -28h-105q-25 0 -25 23q0 25 12 37v-1q6 6 12 6q7 0 18 -4q12 -4 24 -7q21 0 47 8q8 51 10 146h6q-7 22 -7 178q0 229 -15 324q-15 4 -19 5h-4q-1 -1 -3 -1q-9 -1 -38 -3l-23 -2q-25 0 -25 21q0 31 30 31q20 0 59 6q40 6 60 6q23 0 23 -20l1 -367
q0 -66 5 -216z" />
    <glyph glyph-name="asciicircum" unicode="^" horiz-adv-x="289" 
d="M307 371q0 -19 -18 -19q-22 0 -65 94q-29 65 -47 131q-2 0 -8 -19q-1 -1 -4 -13q-11 -22 -21 -52l-11 -33l-36 -105q-7 -15 -22 -15q-16 0 -16 43q0 27 16 74q3 9 13 34t15 39v-1q15 64 27 83h-1q21 38 65 38h13q18 -19 22 -53q4 -11 10 -28.5t15.5 -44.5t17.5 -50
q24 -66 29 -77q6 -13 6 -26z" />
    <glyph glyph-name="underscore" unicode="_" horiz-adv-x="481" 
d="M503 -79h-503v42h503v-42z" />
    <glyph glyph-name="quoteleft" unicode="&#x2018;" horiz-adv-x="102" 
d="M96 444v-5q0 -17 -21 -17q-20 0 -21 16q-13 48 -27 97q-16 51 -16 70v11h12q27 0 31 -19q10 -41 42 -153z" />
    <glyph glyph-name="a" unicode="a" 
d="M159 0q-34 0 -56 48q-24 -65 -64 -65q-59 0 -59 133v13q0 43 21 126q28 106 55 106q48 0 61 -28l15 -31l37 -12q-33 -105 -33 -177v-9q0 -59 18 -59q25 0 77 226q8 29 23 29q17 0 17 -24q0 -32 -35 -146q-40 -130 -77 -130zM93 174l10 83l-10 15q-5 38 -14 38
q-7 0 -20 -39l-2 -6q-1 -2 -17 -61q-15 -56 -15 -140q0 -35 16 -39q14 11 32 70q17 54 20 79z" />
    <glyph glyph-name="b" unicode="b" horiz-adv-x="226" 
d="M179 257q0 -67 -17 -155q-25 -124 -72 -124q-25 0 -43 38q-8 -11 -17 -11q-11 0 -20.5 13.5t-9.5 28.5l2 9v22q0 156 18 308l25 210q2 22 2 29q0 12 -1 13q8 18 28 18h4q31 0 31 -34q0 -12 -6 -37v1q-5 -23 -12 -58q-24 -145 -34 -239q20 65 57 65q65 0 65 -97zM132 239
q0 71 -11 71q-19 0 -44 -106q-23 -94 -24 -135q13 -16 21 -31q4 -10 11 -10q13 0 27 53q20 80 20 158z" />
    <glyph glyph-name="c" unicode="c" horiz-adv-x="151" 
d="M184 300q17 0 17 -26q0 -10 -17 -80q-19 -78 -33 -112q-35 -84 -76 -84q-82 0 -82 144q0 64 18 134q24 89 62 89q17 0 35 -23q18 -22 18 -40q0 -33 -25 -33q-15 0 -31 13q-30 -49 -30 -175q0 -64 27 -64q45 0 88 196q4 15 9 40h-1q7 21 21 21z" />
    <glyph glyph-name="d" unicode="d" horiz-adv-x="234" 
d="M156 106q0 -12 2 -34q3 -26 11 -29q12 7 43 110q28 96 34 124q8 30 22 30q17 0 17 -24q0 -39 -37 -151q-44 -132 -74 -132q-43 0 -58 68q-5 -16 -14 -32q-26 -47 -53 -47q-35 0 -52 39q-13 29 -13 70q0 86 27 180q35 117 78 117q15 0 35 -17l3 -2l5 -5q1 6 5.5 42.5
t8.5 65.5q7 50 21 160v4q-1 1 -1 4q0 25 16 29q10 2 19 2q29 0 29 -30v-5q-1 -2 -1 -5q-3 -24 -12 -69l-23 -120q-2 -5 -12 -96l-10 -86q-16 -134 -16 -161zM103 330q-24 0 -48 -89q-21 -78 -21 -122q0 -85 11 -85q13 0 39 66q20 51 30 99v12q8 82 8 85q0 34 -19 34z" />
    <glyph glyph-name="e" unicode="e" horiz-adv-x="175" 
d="M225 279q0 -13 -13 -65q-22 -97 -38 -133q-37 -91 -89 -91q-46 0 -70 45q-19 37 -19 88q0 68 10 132q18 111 60 111q24 0 43 -17.5t19 -40.5q0 -71 -41 -162q-18 -39 -37 -71q0 -15 14 -29q12 -17 23 -17q35 0 91 210q16 61 26 61q21 0 21 -21zM85 297q0 23 -4 23l-3 -6
q-29 -90 -33 -175q10 19 22 61q18 64 18 97z" />
    <glyph glyph-name="f" unicode="f" horiz-adv-x="163" 
d="M213 286q0 -13 -14 -67q-11 -44 -24 -97q-11 -44 -36 -68h1q-14 -12 -32 -19q24 -107 24 -174q0 -138 -32 -197q-7 -13 -31 -13q-79 0 -79 183v13q0 359 61 801q13 12 38 12q20 0 40 -20q-25 -37 -34 -92q-39 -243 -49 -396q20 -7 34 -33h-1q0 -1 2 -6t6.5 -15.5
t8.5 -21.5q20 2 39 57v-1q14 43 42 158v-1q5 21 18 21q18 0 18 -24zM93 -159q0 117 -27 191q-10 6 -23 19q-8 -147 -8 -206q0 -38 7 -87v1q12 -64 22 -64q9 0 20 62q9 53 9 84z" />
    <glyph glyph-name="g" unicode="g" horiz-adv-x="222" 
d="M263 -94q-12 0 -37 11q-68 0 -71 3q0 -8 1 -39t1 -39q0 -98 -21 -148q-31 -73 -118 -73q-60 0 -113 47v-1q-50 45 -50 112q0 89 179 154q8 2 71 20q0 4 -1 10t-1.5 16t-1.5 19l-2 21q-23 -41 -48 -41q-38 0 -56 39q-15 30 -15 73q0 68 27 177q32 122 66 122q24 0 60 -44
v1q35 -40 66 -51q-53 -98 -53 -238q0 -33 6 -95q50 6 90 6q52 0 52 -35q0 -27 -31 -27zM113 -165q0 24 -4 71q-50 0 -79 -12q-127 -55 -127 -124q0 -40 34 -70q33 -30 73 -30q103 0 103 165zM122 271q0 54 -41 54q-3 -7 -24 -84q-27 -97 -27 -169q0 -53 14 -53q25 0 53 112
q25 96 25 140z" />
    <glyph glyph-name="h" unicode="h" horiz-adv-x="256" 
d="M276 152q-21 -78 -28 -95q-20 -47 -50 -47q-66 0 -70 117q0 1 -2 101q-3 -12 -53 -228q-10 -7 -21 -7q-47 0 -47 165q0 80 21 237q22 154 22 238q0 4 -2 28q11 23 37 23h3q28 0 28 -27q0 -15 -8 -45v1q-7 -28 -8 -37q-44 -293 -44 -420h-16q17 0 18 -16q2 -8 3 -28
q35 113 61 254q6 34 28 34q13 0 51 -32q-26 -142 -26 -234q0 -69 20 -69q18 0 53 125q8 30 22 88q6 29 22 29q18 0 18 -22q0 -10 -32 -133z" />
    <glyph glyph-name="i" unicode="i" horiz-adv-x="118" 
d="M168 282q0 -26 -32 -137q-22 -77 -30 -96q-20 -48 -51 -48q-58 0 -58 105q0 36 6 108t6 108q12 13 27 13q32 0 32 -24l-12 -59q-17 -90 -17 -148q0 -55 17 -55q10 0 24 45l28 96q10 33 21 85q7 31 22 31q17 0 17 -24zM93 537q0 -46 -31 -46q-18 0 -31.5 15.5t-13.5 34.5
q0 13 12.5 27t24.5 14q39 0 39 -45z" />
    <glyph glyph-name="j" unicode="j" horiz-adv-x="130" 
d="M176 -67q0 -10 -13 -26q-13 0 -24 15q-19 19 -52 19q-4 0 -25 -3q-3 0 -6 -1h-5l6 -153q1 -52 -36 -99q-37 -46 -95 -46q-63 0 -115 37q-60 42 -60 104q0 28 17 51q15 20 28 35l-1 -1q53 70 207 110l-3 75q-3 49 3 119q8 91 8 119v3q-2 8 -2 11l-6 15q34 10 49 10
q29 0 29 -25q-18 -44 -27 -137q-7 -66 -7 -144q0 -37 1 -43q4 0 9 0.5t8 1t4 0.5l32 3q26 0 45 -10q31 -16 31 -40zM5 -218l-3 146q-32 -9 -78 -32q-127 -66 -127 -123q0 -39 41 -65q38 -23 78 -23t64.5 26.5t24.5 68.5v2zM93 537q0 -46 -31 -46q-18 0 -31.5 15.5
t-13.5 34.5q0 13 12.5 27t24.5 14q39 0 39 -45z" />
    <glyph glyph-name="k" unicode="k" horiz-adv-x="244" 
d="M269 171q-2 -7 -9.5 -32t-13.5 -44q-32 -95 -75 -95q-47 0 -68 49q-2 2 -18 67q-11 -9 -33 -23q0 -3 -1 -9.5t-2 -19t-2 -24.5q6 -18 6 -31q0 -23 -24 -23q-31 0 -31 103q0 84 17 259q19 176 21 258q-2 14 -2 20q0 45 29 45q17 0 28 -13.5t11 -31.5q0 -26 -20 -114
l-14 -105q-13 -105 -16 -155q12 30 30 69q29 62 60 62q24 0 40.5 -17.5t16.5 -41.5q0 -47 -26 -91q-2 -4 -7.5 -13t-14.5 -24.5t-18 -30.5q-2 -24 -2 -26q0 -27 7 -54q10 -39 29 -39q29 0 82 203v-1q3 12 7 36q8 23 22 23q17 0 17 -21q0 -31 -26 -115zM152 328q0 11 -6 11
q-15 0 -49 -91q-31 -80 -34 -99q23 11 53 72q36 73 36 107z" />
    <glyph glyph-name="l" unicode="l" horiz-adv-x="183" 
d="M103 -12q-55 0 -83 76q-20 55 -20 120q0 239 59 425l-1 -1q5 74 41 74q70 0 70 -107q0 -83 -30 -192q-32 -116 -74 -179v1q-1 -3 -7 -13q-3 -1 -5 -7q-6 -7 -6 -16q0 -68 28 -105q18 -25 30 -25q27 0 76 184q4 4 4 8l-1 -1q2 11 11 50v-1q6 28 21 28q18 0 18 -24
q0 -36 -38 -155q-47 -140 -93 -140zM122 548q0 45 -4 60q-61 -210 -68 -334q24 60 44 126q28 94 28 148z" />
    <glyph glyph-name="m" unicode="m" horiz-adv-x="398" 
d="M451 277q0 -49 -59 -202q-30 -75 -70 -75q-50 0 -58 86q-1 7 -1 41q-8 -28 -23 -69q-22 -58 -53 -58q-43 0 -43 65l9 166q-3 -11 -12 -52q-25 -111 -28 -122q-22 -70 -58 -70q-40 0 -40 99q0 32 1 58q2 52 2 58l-8 22v10q-1 3 -1 8q0 58 32 58q34 0 34 -46q0 -26 -7 -69
t-7 -69q0 -22 2 -52q11 24 20 72q13 73 15 76q24 95 62 95t38 -74q-10 -70 -10 -127v-36q13 0 43 106q26 95 26 115v4q-1 1 -1 3q3 19 30 19q17 0 49 -20q-26 -124 -26 -189q0 -62 13 -62q20 0 48 81q15 48 37 129v-2q0 7 6 25q6 19 20 19q18 0 18 -21z" />
    <glyph glyph-name="n" unicode="n" horiz-adv-x="266" 
d="M317 276q0 -28 -33 -132q-46 -144 -81 -144q-42 0 -57 75q-6 34 -10 104q-19 -67 -33 -127q-11 -48 -38 -48q-37 0 -45 47l-4 72q0 10 -0.5 20t-1 15t-0.5 6q0 9 2 37l3 32l-9 18q1 26 6 40v-1q7 22 32 22q28 0 28 -27q0 -10 -7 -27q-1 -7 -2.5 -14t-2 -10t-0.5 -4
q0 -28 -1 -51t-1 -51q0 -54 5 -59q-1 5 3 18v-1q8 35 21 74l-1 -1q27 80 32 145q3 44 20 56q60 -4 60 -40h-9q3 -13 -1 -55q-10 -94 -10 -119q0 -93 17 -93t45 94q24 77 32 115q7 37 24 37t17 -23z" />
    <glyph glyph-name="o" unicode="o" horiz-adv-x="231" 
d="M282 283q0 -50 -22 -98q-27 -61 -69 -61q-10 0 -25 7q-2 -5 -6 -28v-1q-1 -2 -1.5 -4t-0.5 -5q-16 -48 -27 -66h1q-22 -34 -54 -34q-78 0 -78 150q0 83 15 122q-2 9 -2 24q3 13 7 17q0 2 1 6t2 9t2 11l3 11q10 40 41 40q28 0 56 -22q30 -24 37 -49q9 -27 9 -135
q7 -6 14 -6q28 0 40 32q7 14 19 73q4 25 20 25q18 0 18 -18zM122 142q0 16 -8 59q-7 38 -7 62q0 18 1 21l2 20q0 24 -20 24q-12 0 -27 -84q-13 -74 -13 -113q0 -93 32 -93q5 0 19 32q21 50 21 72z" />
    <glyph glyph-name="p" unicode="p" horiz-adv-x="238" 
d="M189 270q0 -93 -16 -163q-27 -121 -93 -121q-22 0 -38 22q-3 6 -7 11q-14 -98 -14 -202q0 -78 16 -111q0 -16 -22 -16q-39 0 -39 125q0 81 21 271q17 168 17 244v8q-5 8 -5 14q0 22 24 22q26 0 26 -37q0 -2 -1 -15.5t-1 -16.5v-11l8 20q25 61 44 61q47 0 66 -31
q14 -25 14 -74zM122 334q-7 0 -14 -19q-1 -1 -7 -19q-3 -10 -12 -36q-40 -112 -42 -154q18 -10 18 -23q0 -5 -6 -13q0 -5 -2 -5q0 -13 7.5 -25.5t16.5 -12.5q24 0 44 74l1 5q16 61 16 102v13q1 3 1 16v31q0 66 -21 66z" />
    <glyph glyph-name="q" unicode="q" horiz-adv-x="206" 
d="M250 73l8 -14q-23 -53 -51 -157q-21 -75 -21 -82q0 -5 17 -65v-17q0 -18 -31 -18q-34 0 -34 30q0 4 2 12l-1 -2q-5 96 -13 184q0 6 -1.5 23.5t-4 47.5t-4.5 61q-8 -27 -18 -49q-18 -39 -49 -39q-64 0 -64 93q0 77 15 156q25 127 75 127q22 0 45 -38q7 7 14 7
q12 0 23 -14.5t11 -28.5q0 -2 -2 -10l1 4q0 -19 -3 -58q-2 -50 -2 -57q0 -103 14 -249q14 46 44 123q0 1 1.5 4.5t2 4.5t2 4.5t2.5 4.5t2.5 3.5t3 3.5t3.5 2.5t4 2t5 0.5h4zM88 136q24 99 25 134q-9 7 -23 34q-3 6 -11 6q-15 0 -28 -52q-20 -80 -20 -158q0 -69 14 -69
q18 0 43 105z" />
    <glyph glyph-name="r" unicode="r" horiz-adv-x="208" 
d="M149 0q-35 0 -57 36q-9 15 -10 63q-1 15 -1 39q0 26 1 51l2 76q0 12 -28 31q-8 -42 -22 -89v2q-2 -2 -6 -17q-2 -2 -7 -15l-25 9q0 21 11 68q11 49 11 68q0 7 -8 31q-7 21 -7 35q0 57 32 57q29 0 29 -39v-7q0 -17 -1 -20v-3l-2 -30q0 -2 35 -22q44 -26 44 -58
q0 -36 -7 -95q-7 -57 -7 -93t17 -36q11 0 42 99q31 98 35 131q4 30 23 30q16 0 16 -23q0 -38 -37 -149q-43 -130 -73 -130z" />
    <glyph glyph-name="s" unicode="s" horiz-adv-x="144" 
d="M113 88q0 -101 -65 -101q-24 0 -45 19t-21 43q0 26 14 29q14 0 14 -24q10 -27 24 -27q31 0 31 64q0 28 -17 98q-1 8 -9 31q-21 -92 -43 -92l-18 2q36 154 36 220q0 35 31 35q34 0 34 -28q0 -6 -4 -25.5t-4 -24.5q0 -35 20 -109q22 -78 22 -110z" />
    <glyph glyph-name="t" unicode="t" horiz-adv-x="140" 
d="M310 474l-2 -6q-9 -9 -54 -16q-41 -7 -56 -7q-59 0 -84 1l-38 1q-22 -148 -22 -228q0 -74 2 -108q5 -50 18 -50q31 0 74 193q12 52 26 52q19 0 19 -25q0 -37 -34 -139q-43 -133 -88 -133q-41 0 -59 73q-10 39 -10 92q0 29 23 273q-3 0 -80 2l-28 -9q-10 11 -21 16
q-16 6 -16 20q0 16 21 16q62 0 129 4v1l2 60l-4 19q6 17 21 17q13 0 48 -23v-27q0 -4 -10 -48h19q45 0 60 -1q7 -1 144 -4v-16z" />
    <glyph glyph-name="u" unicode="u" horiz-adv-x="259" 
d="M140 327q0 32 28 32q37 0 37 -25q0 -4 -12 -36q0 -10 -9 -72v1q-8 -62 -8 -87q0 -80 18 -80q17 0 46 98q22 80 33 121q7 21 21 21q17 0 17 -21q0 -32 -32 -136q-42 -133 -88 -133q-25 0 -44 37v-1l-10 25q-4 -8 -12 -25.5t-12 -26.5q-17 -26 -47 -26t-46 30
q-13 25 -13 58q0 204 14 227q9 14 25 14q13 0 23.5 -11t10.5 -25q0 -15 -4 -24v1q0 -2 -1.5 -5.5t-3 -8.5t-2.5 -9l1 1q-13 -74 -13 -175q0 -32 9 -32q6 0 18 19v-1q19 37 30 88l18 90q10 49 10 86q0 2 -1 6t-1 5z" />
    <glyph glyph-name="v" unicode="v" horiz-adv-x="203" 
d="M168 281q0 -50 -23 -151q-28 -121 -71 -121q-62 0 -62 175q0 26 1 47t1 47q-2 10 -2 12q0 20 20 18q36 -2 36 -40q0 -20 -4 -49q-4 -28 -4 -48q0 -108 18 -108q5 0 26 72q23 78 23 123v67q-3 17 -6 27l11 2h-11q0 16 15 16q32 0 32 -89z" />
    <glyph glyph-name="w" unicode="w" horiz-adv-x="302" 
d="M17 335q7 15 26 15q14 0 38 -24q-37 -95 -37 -210q0 -64 18 -70q36 56 36 131q0 22 4 53t4 53l-2 12l-4 17q15 16 34 16q31 0 31 -27l-1 -4q-1 -4 -3.5 -16.5t-5.5 -25.5q-7 -78 -7 -99q0 -29 13 -88h-1q3 -8 12 -8t26 80q10 44 10 68q0 12 -5 44t-5 44q0 50 1 51v-1
q4 30 26 41q27 -14 29 -39l4 -138q1 -7 15 -7q24 0 35 41l2 10q1 10 3 18q8 29 24 29q17 0 17 -20q0 -28 -17 -73q-21 -54 -50 -54q-20 0 -41 9l-16 -95q-15 -53 -56 -53q-33 0 -57 53q-23 -68 -57 -68q-60 0 -60 113q0 65 6 128q7 87 11 94z" />
    <glyph glyph-name="x" unicode="x" horiz-adv-x="213" 
d="M264 279q0 -37 -36 -141q-47 -134 -108 -134q-21 0 -50 24l-1 -7q-3 -15 -15 -76q-41 5 -41 24q0 17 33 102q-19 99 -19 174v12l-12 16q0 2 1.5 18t3.5 30q4 36 28 36q33 0 33 -56q0 -5 -2 -45q-1 -20 -1 -45q0 -29 2 -53q15 39 60 140q1 1 4 11v-1q1 2 35 68
q29 -18 29 -31q0 -11 -39 -89q-51 -104 -74 -175q2 -11 11.5 -21t18.5 -10q43 0 93 192v-1q2 12 6 30v-1q8 32 21 32q19 0 19 -23z" />
    <glyph glyph-name="y" unicode="y" horiz-adv-x="228" 
d="M-25 135q23 70 35 132q0 75 36 75q23 0 23 -21v-3l-10 -100q-8 -85 -8 -117q0 -69 16 -69t52 140v-2q13 110 22 177q4 34 34 34h4q22 0 22 -22q0 -21 -20 -99q-8 -32 -8 -147v-48l3 -85l1 -31q17 6 26 6q31 9 45 9q52 0 52 -32q0 -7 -5 -15l-10 -4q-34 7 -54 7
q-10 0 -48 -11q0 -7 1.5 -34t1.5 -34q0 -233 -150 -233q-47 0 -80 35q-34 34 -34 87q0 75 88 142q63 49 125 64q-2 78 -8 119q-13 -31 -21 -42q-17 -20 -39 -20q-54 0 -66 72q-1 4 -1 23q-31 -88 -58 -88q-31 0 -31 17q0 15 22 25q11 0 42 93zM138 -165v58q-64 -19 -112 -63
q-56 -51 -56 -110q0 -28 17 -50t41 -22q57 0 87 69q23 54 23 118z" />
    <glyph glyph-name="z" unicode="z" horiz-adv-x="259" 
d="M281 -63l-6 -1q-21 7 -47 7q-14 0 -32 -2q8 -72 8 -78q0 -77 -30 -145q-38 -84 -108 -84q-48 0 -86 36v-1q-38 36 -38 87q0 119 197 211q-10 36 -45 56q-25 -19 -40 -19q-43 0 -43 34t52 34q46 54 63 95q23 60 23 140q0 58 -33 58q-23 0 -43 -29q-17 -26 -21 -51
q-6 -38 -18 -38q-21 0 -21 25q0 29 20 77q28 67 70 67q44 0 69.5 -31t25.5 -80q0 -135 -81 -250q39 -22 68 -75q36 6 67 6q43 0 43 -28q0 -13 -14 -21zM160 -132q0 32 -6 60q-61 -17 -107 -69q-49 -55 -49 -115q0 -28 15 -46.5t41 -18.5q54 0 84 71q22 53 22 118z" />
    <glyph glyph-name="braceleft" unicode="{" horiz-adv-x="287" 
d="M270 642q0 -22 -24 -23l-1 8q-3 -6 -36 -6q-29 0 -33 -13q-6 -25 -11 -151q-1 -33 -9 -96q-13 -58 -48 -79q-14 -9 -21 -18q-6 -4 -6 -8l1 -1q2 -1 4 -3l4 -4l11 -11q2 -2 11 -8l2 -3l5 -5l-1 3q21 -29 22 -31q10 -16 14 -54q14 -121 14 -213q0 -31 41 -31h34
q19 -4 19 -25q0 -13 -15 -16q-4 0 -20.5 1.5t-18.5 1.5q-87 0 -87 43q0 26 -8 101q-3 33 -7 99q-6 62 -20 93v-1q-9 19 -36 32q-20 11 -20 33q0 24 19 37q7 4 22.5 13t23.5 14q20 69 20 212q0 45 -1 54q0 2 -1 5v5q0 68 91 68q16 0 19 1l21 2q26 0 26 -23v-3z" />
    <glyph glyph-name="bar" unicode="|" horiz-adv-x="217" 
d="M179 661q0 -43 -13 -117q-5 -37 -11 -148q-8 -174 -8 -271q0 -90 5 -172q1 -12 9 -41q9 -29 9 -41q0 -14 -9 -32l1 2v1q-4 -10 -10 -16h-2q-25 0 -30 14v-1q-23 71 -23 200q0 171 16 391q18 258 49 258q17 0 17 -27z" />
    <glyph glyph-name="braceright" unicode="}" horiz-adv-x="287" 
d="M267 264q0 -27 -19 -37q-32 -17 -48 -28q-19 -67 -19 -209q0 -11 2 -53q0 -2 1 -5v-6q0 -67 -92 -67l-19 -2q-3 -1 -20 -1q-26 0 -26 22v3q0 21 24 23v-7q3 5 37 5q28 0 32 13q7 21 11 148q5 116 32 155q3 6 24 20q15 8 22 18q6 6 6 9q-9 7 -30 26q-1 1 -3.5 4t-4.5 5
l1 -3q-30 36 -36 85q-14 117 -14 215q0 14 -12 23t-28 9h-34q-20 5 -20 24q0 14 15 17h3q2 -1 7 -1.5t11 -0.5q3 -1 19 -1q45 0 64 -12q25 -15 26 -55q0 -6 1.5 -31.5t2.5 -44.5q2 -18 8 -104q1 -54 20 -93v1q4 -9 16 -20t20 -13q20 -5 20 -31z" />
    <glyph glyph-name="asciitilde" unicode="~" horiz-adv-x="481" 
d="M461 231q0 -44 -37 -75q-38 -30 -82 -30h-5q-36 0 -64 19q-8 3 -48 43q-27 27 -42 27q-35 0 -54 -25q-15 -15 -39 -51q-8 -6 -18 -6q-27 0 -27 20q0 43 46 77q47 36 89 36q43 0 86 -43l35 -35q16 -13 34 -13h6q58 7 65 61q0 21 24 21h3q28 0 28 -26z" />
    <glyph glyph-name="exclamdown" unicode="&#xa1;" horiz-adv-x="164" 
d="M72 13l-1 8q40 130 40 384q0 93 -6 127q17 9 18 9q9 0 14 -12v1q17 -30 21 -69q2 -24 2 -72q0 -116 -23 -387q-6 -16 -27 -16q-22 0 -38 27zM93 618q0 12 10 27t19 15q15 0 26.5 -12t11.5 -30q0 -12 -12 -34h1q-12 -26 -23 -26q-17 0 -26 25q-7 13 -7 35z" />
    <glyph glyph-name="cent" unicode="&#xa2;" horiz-adv-x="220" 
d="M179 275q0 -14 -13 -32.5t-30 -30.5q-17 -11 -47 -15l1 -1v-18q0 -45 -21 -45q-15 0 -17 41q0 8 -1 17v13q-33 28 -42 60v-1q-9 25 -9 78q0 144 58 190v30q4 36 18 36q20 0 20 -15v-43q10 -5 35 -18q35 -29 35 -60q0 -23 -23 -23q-19 0 -42 26q-16 19 -16 20
q-17 -2 -30 -72q-11 -60 -11 -88q0 -36 7 -57q9 -30 30 -30q39 0 64 66q34 -7 34 -28z" />
    <glyph glyph-name="sterling" unicode="&#xa3;" horiz-adv-x="462" 
d="M443 590h4q52 0 52 -39q0 -30 -30 -30q-11 0 -13 1l-14 2q-89 0 -161 -162q53 14 79 14q58 0 58 -42q0 -33 -29 -33q-1 0 -3 0.5t-5.5 1t-7.5 0.5l-26 3q-20 -1 -50 -8h1q-13 -4 -31 -8l-18 -4q-51 -123 -98 -187q90 26 146 26q55 0 55 -37q0 -26 -23 -34q-9 -3 -48 -3
q-82 0 -226 -52h1q-29 -13 -47 -13q-34 0 -34 30q0 25 35 48q62 37 94 87q7 11 60 118q-35 -5 -51 -5q-44 0 -44 35q0 15 11.5 26.5t24.5 11.5q2 0 17.5 -1.5t19.5 -1.5q30 0 55 7q67 145 119 197t127 52z" />
    <glyph glyph-name="fraction" unicode="&#x2044;" horiz-adv-x="159" 
d="M263 649l4 1q9 0 21.5 -10.5t12.5 -19.5q0 -16 -42 -61q-71 -77 -175 -265q-111 -202 -124 -286q-3 -15 -19 -15q-11 0 -19.5 11t-8.5 24q17 78 113 257q69 129 139 233l48 72q33 51 50 59z" />
    <glyph glyph-name="yen" unicode="&#xa5;" horiz-adv-x="420" 
d="M119 249q27 0 88 14l9 21q-2 200 -34 249q-4 5 -4 12q0 21 34 25q24 0 35 -20q25 -48 38 -186q147 189 203 223q19 11 32 11q31 0 31 -34q0 -18 -43 -57v1q-1 -1 -13 -10q-68 -68 -132 -148q-4 -4 -34 -44q-3 -4 -10 -12.5t-9 -11.5q18 3 28 3q58 0 58 -37q0 -29 -29 -29
q-6 1 -17 2q-22 2 -23 2q-12 0 -70 -11l-5 -5q20 3 30 3q58 0 58 -37q0 -29 -29 -29q-9 0 -17 1l-10 1q-11 1 -13 1q-31 0 -72 -10q-58 -82 -94 -147q-18 -34 -37 -34h-6q-26 0 -32 27v3q0 26 77 133q-41 -7 -74 -7q-3 0 -6 1h-6q-28 3 -28 31q0 12 10.5 22.5t22.5 10.5
q17 0 20 -1h9q3 -1 8 -1q38 0 61 5l30 7l5 7q-34 -7 -66 -7q-15 0 -17 1q-30 4 -30 30q0 13 11.5 23.5t24.5 10.5q2 0 17.5 -1.5t19.5 -1.5z" />
    <glyph glyph-name="florin" unicode="&#x192;" horiz-adv-x="402" 
d="M417 669q0 -13 -15 -27t-28 -14q-23 0 -44 21q-17 17 -23 17q-31 0 -57 -254q86 -2 114 -15q-32 -27 -99 -27h-10q-3 -1 -10 -1q-6 -96 -30 -242q-10 -61 -29 -150q-45 -207 -178 -207q-26 0 -47 31q-20 29 -20 56q0 16 10.5 28.5t25.5 12.5q23 0 35 -53q4 -11 4 -14
q7 -13 24 -13q65 0 91 194q18 133 37 357q-78 1 -78 21q0 12 36 17q11 1 46 4q18 163 43 207q19 35 59 66q43 34 80 34q24 0 43.5 -14.5t19.5 -34.5z" />
    <glyph glyph-name="section" unicode="&#xa7;" horiz-adv-x="468" 
d="M434 412q-54 -54 -87 -54q-28 0 -28 28q0 19 40 50q-28 43 -80 43q-65 0 -65 -69q0 -29 10 -42q22 -30 89 -67q116 -65 116 -131q0 -33 -23.5 -59.5t-83.5 -58.5q38 -35 38 -73q0 -24 -16.5 -52.5t-39.5 -42.5l-35 -21q-5 -5 -5 -4q-74 -54 -128 -54q-47 0 -78 24t-31 61
q0 29 46 66q41 33 57 33q27 0 27 -28q0 -25 -39 -53q36 -36 84 -36q69 0 69 60q0 44 -57 85q-17 12 -51.5 35l-52.5 35q-57 43 -57 91q0 31 21 56t74 55l12 7q-36 38 -36 74q0 40 33 74q19 19 76 56q41 28 52 31q25 13 60 13q46 0 77 -24.5t31 -61.5q0 -27 -19 -46zM233 247
q-19 11 -48 30q-41 -35 -41 -73q0 -26 23.5 -49t86.5 -59q10 -5 43 -26q41 33 41 70q0 33 -38 65q-20 17 -67 42z" />
    <glyph glyph-name="currency" unicode="&#xa4;" horiz-adv-x="578" 
d="M514 37l-93 96q-55 -39 -121 -39q-72 0 -124 39l-93 -96l-51 52l94 95q-39 54 -39 125q0 75 39 126l-94 95l51 52l93 -97q56 41 124 41t121 -41l93 97l51 -52l-93 -96q39 -58 39 -125q0 -69 -39 -125l93 -95zM300 460q-60 0 -104 -45q-42 -45 -42 -106q0 -63 42 -106
q42 -42 104 -42t102 43q41 44 41 105t-42 106q-41 45 -101 45z" />
    <glyph glyph-name="quotesingle" unicode="'" horiz-adv-x="0" 
d="M24 589q0 -23 -29 -93v1q-17 -47 -29 -47q-20 0 -21 24q14 33 49 160q30 -24 30 -45z" />
    <glyph glyph-name="quotedblleft" unicode="&#x201c;" horiz-adv-x="216" 
d="M137 450v-3q0 -20 -24 -20q-19 0 -22 16q-6 26 -28 96q-18 57 -18 72v12q41 0 47 -19q14 -46 45 -154zM179 466l-8 -12h-12q-3 0 -8 -1q-16 1 -19 20v-1q-25 91 -45 179q32 0 39 -7q8 -6 15 -39v1q24 -84 38 -140z" />
    <glyph glyph-name="guillemotleft" unicode="&#xab;" horiz-adv-x="404" 
d="M401 354q-41 -46 -104 -97q50 -62 90 -157l-71 -42h-16q-33 94 -89 156v17q93 71 159 146h13zM128 256l-5 -4q59 -75 88 -156l-68 -38h-22q-23 87 -81 159v13q97 80 159 145h14l21 -23q-28 -34 -106 -96z" />
    <glyph glyph-name="guilsinglleft" unicode="&#x2039;" horiz-adv-x="216" 
d="M119 263l-5 -4q51 -67 86 -158l-71 -43h-11q-38 104 -86 157v17l29 24q53 44 124 122h11l17 -21q-34 -46 -94 -94z" />
    <glyph glyph-name="guilsinglright" unicode="&#x203a;" horiz-adv-x="216" 
d="M58 58h-11l-17 22q24 31 98 99q-37 49 -78 134l-10 21l72 44h12q37 -107 87 -157v-16q-90 -71 -153 -147z" />
    <glyph glyph-name="fi" unicode="&#xfb01;" horiz-adv-x="168" 
d="M171 245v-2q6 66 6 84q13 12 29 12q34 0 34 -23q-2 -10 -7 -29t-7 -31q-18 -88 -18 -150q0 -56 19 -56q11 0 25 45q1 3 29 97q6 18 23 86q8 32 23 32q18 0 18 -24q0 -31 -33 -139q-12 -40 -28 -88q-25 -58 -59 -58q-35 0 -52 41q-7 15 -10 36q-10 -17 -20 -24h1
q-14 -12 -32 -19q24 -107 24 -174q0 -141 -33 -197q-7 -13 -32 -13q-81 0 -81 183v13q0 371 63 801q13 12 39 12q18 0 41 -20q-26 -42 -35 -92q-39 -230 -51 -396q21 -7 35 -33h-1q9 -19 18 -43q18 2 37 49q7 16 35 120zM96 -159q0 119 -28 191q-14 9 -23 19
q-9 -121 -9 -206q0 -29 8 -87v1q10 -64 22 -64q10 0 20 63q10 53 10 83zM267 552q0 -46 -33 -46q-19 0 -33 15.5t-14 35.5q0 13 13 27t25 14q42 0 42 -46zM180 122v-1l-1 -1q1 1 1 2z" />
    <glyph glyph-name="fl" unicode="&#xfb02;" horiz-adv-x="169" 
d="M276 -12q-55 0 -89 79q-36 -28 -74 -35q25 -97 25 -171q0 -141 -34 -197q-7 -13 -32 -13q-82 0 -82 183v13q0 371 63 802q14 11 40 11q19 0 41 -19q-27 -42 -36 -93q-40 -240 -50 -396q22 -8 35 -33h-1q1 -2 6.5 -15.5t10.5 -25.5q41 0 75 34q-2 24 -2 66q0 97 15 220
q17 138 43 217l-1 -2q4 76 42 76q72 0 72 -95q0 -109 -20 -234q-24 -142 -67 -221q-11 -21 -22 -32q1 -13 17 -41q17 -27 27 -27q28 0 79 186q4 5 4 9l-1 -1q3 18 12 50v-1q4 28 21 28q19 0 19 -24q0 -36 -40 -156q-46 -142 -96 -142zM96 -159q0 117 -27 191q-10 5 -24 19
q-9 -121 -9 -206q0 -29 8 -87v1q12 -64 23 -64q9 0 20 62q9 51 9 84zM295 553q0 39 -5 64q-30 -95 -51 -228q-18 -113 -18 -178l2 -37q72 157 72 379z" />
    <glyph glyph-name="endash" unicode="&#x2013;" horiz-adv-x="281" 
d="M294 151q0 -20 -43 -27q-95 0 -180 -3q-4 0 -13 -1l-26 -2h-7q-21 0 -21 11q0 18 28 22h-1q12 4 51 4h31l129 3q3 0 26 3l-1 -1q8 2 11 2q16 0 16 -11z" />
    <glyph glyph-name="dagger" unicode="&#x2020;" horiz-adv-x="468" 
d="M417 396l-4 -1q-11 -1 -99 -10l-132 -541l-76 -56l-17 12l20 76q86 324 119 510l-55 2q-54 2 -102 -16l-6 19q16 15 58 42l21 12q17 10 28 10h68l1 11q10 104 10 137v15q20 11 49 28l30 18l17 -3v-19q0 -92 -17 -174l-3 -14q74 0 164 9l4 -18q-17 -11 -78 -49z" />
    <glyph glyph-name="daggerdbl" unicode="&#x2021;" horiz-adv-x="531" 
d="M487 418q-46 -28 -90 -28q-3 0 -8 0.5t-14 1t-17 0.5l-6 -27q-13 -59 -38 -147q-23 -79 -30 -115l-5 -25q40 -4 83 -4q27 0 65 5l6 -15l-23 -17q-29 -22 -51 -28q-23 -9 -56 -9h-3l-36 2q-15 -68 -16 -123q0 5 1 -12q1 -14 1 -24l-76 -48q-4 -4 -9 -4q-10 0 -10 7
q-4 8 -4 29q2 77 28 180q-27 3 -74 3q-34 0 -61 -7l-9 18q3 2 7.5 4.5t11.5 6.5t13 8q57 33 94 33q15 0 34 -3q40 150 80 313q-50 3 -97 9q-16 0 -30 -3l-24 8q13 13 19 16l20 15q35 26 83 26q1 0 6.5 -0.5t16 -1t22.5 -0.5q18 108 18 159q10 6 81 50l11 -6q1 -11 3 -24v-6
q0 -75 -27 -164l-4 -13h10q73 0 144 3l7 -16q-4 -2 -19 -11t-28 -16z" />
    <glyph glyph-name="periodcentered" unicode="&#xb7;" horiz-adv-x="186" 
d="M121 174q-14 0 -15 1h-1l-19 2l-4 4q-2 0 -12 7v25q0 19 3 33l15 5l6 -2v1q10 0 19 -6q8 -2 19 -8l-5 -40l5 -5q0 -3 -11 -17zM74 205l1 -1z" />
    <glyph glyph-name="paragraph" unicode="&#xb6;" horiz-adv-x="527" 
d="M541 625h-64l-114 -834h-49l115 834h-73l-114 -834h-50l69 497q-57 5 -85 13h1q-116 32 -116 149q0 103 73 161q67 55 172 55h239z" />
    <glyph glyph-name="bullet" unicode="&#x2022;" horiz-adv-x="371" 
d="M339 325q0 -74 -51 -127q-50 -53 -123 -53q-53 0 -88 47q-30 40 -30 98q0 185 172 185q74 0 102 -49q18 -32 18 -101z" />
    <glyph glyph-name="quotesinglbase" unicode="&#x201a;" horiz-adv-x="101" 
d="M114 94q0 -23 -32 -93v2q-15 -45 -29 -45q-19 0 -21 24q12 25 49 156q33 -22 33 -44z" />
    <glyph glyph-name="quotedblbase" unicode="&#x201e;" 
d="M195 101q-9 -46 -26 -82q-11 -19 -36 -69q-12 -25 -26 -25q-19 0 -19 20q0 11 16 44l30 62q1 13 32 82q29 -20 29 -29v-3zM148 114q-3 -21 -42 -108q-29 -62 -42 -62q-22 0 -22 22q0 18 46 94q0 2 31 86q29 -18 29 -30v-2z" />
    <glyph glyph-name="quotedblright" unicode="&#x201d;" 
d="M195 605q-8 -45 -26 -82q-2 -5 -12 -25l-24 -46q-14 -26 -26 -26q-19 0 -19 20q0 11 16 44l30 65q1 13 32 82q29 -20 29 -29v-3zM148 619q-3 -20 -42 -109q-29 -65 -42 -65q-22 0 -22 22q0 15 46 97q0 2 31 86q29 -18 29 -30v-1z" />
    <glyph glyph-name="guillemotright" unicode="&#xbb;" horiz-adv-x="405" 
d="M67 58h-13l-20 23q60 62 97 89l8 7q-29 38 -83 139l-9 17l75 43h15q38 -102 89 -155v-17q-92 -69 -159 -146zM238 61h-14l-19 25q10 10 91 81l17 15l-12 17q-46 66 -75 140l69 36h21q23 -82 83 -157v-15q-69 -50 -161 -142z" />
    <glyph glyph-name="ellipsis" unicode="&#x2026;" horiz-adv-x="575" 
d="M144 30q0 -35 -39 -35q-38 0 -38 27q0 12 12 23t26 11q39 0 39 -26zM335 30q0 -35 -38 -35t-38 27q0 12 12 23t26 11q38 0 38 -26zM527 30q0 -35 -38 -35q-39 0 -39 27q0 12 12.5 23t26.5 11q38 0 38 -26z" />
    <glyph glyph-name="perthousand" unicode="&#x2030;" horiz-adv-x="527" 
d="M524 163q0 -174 -87 -174q-77 0 -83 120q-10 -120 -83 -120q-83 0 -83 141q0 102 39 158q2 2 4 6q3 5 11 15h7l17 -2q56 0 79 -50q11 -23 12 -75q7 64 37 106q2 2 3 3.5t3.5 6t7.5 11.5h8l16 -2q56 0 79 -50q13 -27 13 -94zM447 620q0 -18 -42 -61q-66 -69 -179 -266
q-112 -194 -127 -285q-3 -15 -19 -15q-12 0 -20.5 11t-8.5 24q20 78 119 257q58 105 121 206q-1 0 -2.5 -1t-2.5 -2t-2 -1q-28 -15 -49 -15q-37 0 -69 5q-12 -87 -19 -102v1q-18 -56 -62 -56q-85 0 -85 108q0 66 15 124q26 98 73 98q67 0 77 -127q28 -11 44 -11q66 0 157 85
q3 1 15 24q11 21 30 29q9 0 22.5 -10.5t13.5 -19.5zM314 177q0 86 -37 86q-17 0 -27 -64q-10 -54 -10 -89q0 -84 28 -84q25 0 37 60q9 43 9 91zM481 177q0 86 -37 86q-15 0 -27 -64q-11 -61 -11 -89q0 -84 28 -84q24 0 38 60q9 41 9 91zM116 453v2q0 2 0.5 7t0.5 12t0.5 17
t0.5 22q-16 28 -17 69q-1 7 -7 11q-39 -81 -39 -169q0 -62 21 -62q28 0 41 58v16q-1 5 -1 17z" />
    <glyph glyph-name="questiondown" unicode="&#xbf;" horiz-adv-x="371" 
d="M-31 127q0 55 24 103q16 35 60 88q68 82 107 137l-1 -3l17 60q-2 7 -7 15t-5 14q0 19 22 19q30 0 30 -64q0 -58 -54 -133q-6 -8 -26 -36t-34 -47q-10 -14 -36 -48q-49 -67 -49 -134q0 -59 52 -59q58 0 147 110q37 46 58 81q25 43 25 87q0 2 -0.5 5t-1 9t-0.5 10
q13 5 17 5q29 0 29 -44q0 -59 -40 -127q-31 -55 -83 -107q-80 -77 -148 -77q-52 0 -79 44q-24 38 -24 92zM145 628q0 21 12.5 36.5t30.5 15.5q35 0 35 -39q0 -18 -10.5 -32.5t-24.5 -14.5q-43 0 -43 34z" />
    <glyph glyph-name="grave" unicode="`" horiz-adv-x="196" 
d="M89 429l-10 -11l-43 25q-11 8 -17 9h1q-25 15 -25 32q0 20 21 26l-1 -1q8 2 9 2q17 0 28 -17v1q43 -43 43 -50t-6 -16z" />
    <glyph glyph-name="acute" unicode="&#xb4;" horiz-adv-x="196" 
d="M204 484q0 -13 -28 -32q-2 0 -6 -4q-3 -2 -8 -5l-46 -26l-8 14v-1q-7 7 -7 15q0 9 24 31q1 1 7 6.5t11 10.5q11 18 30 18q1 0 9 -2l-1 1q23 -5 23 -26z" />
    <glyph glyph-name="circumflex" unicode="&#x2c6;" horiz-adv-x="165" 
d="M172 430l-5 -2q-9 0 -21 16l-2 5q-4 5 -13 22v-1q-5 9 -14 9t-20 -11l-1 -1q-23 -23 -33 -23h-4q-11 5 -11 15v5q3 14 30 38q28 25 42 25h1q13 0 35 -34q22 -35 24 -48v-3q0 -9 -8 -12z" />
    <glyph glyph-name="tilde" unicode="&#x2dc;" horiz-adv-x="209" 
d="M148 428l-1 1q-21 12 -44 34q-14 20 -26 20q-3 0 -8 -11q-7 -19 -17 -19q-14 0 -14 24q0 46 37 46q17 0 47 -24l7 -7q13 -16 24 -19h4q5 0 22 27q3 1 8 12q16 -9 16 -25q0 -23 -14.5 -42.5t-30.5 -19.5q-6 0 -10 3z" />
    <glyph glyph-name="macron" unicode="&#xaf;" horiz-adv-x="103" 
d="M-24 319l6 11l-14 -5q0 5 4 12q3 3 5 9v1q0 5 5 10l4 3l5 2h51l2 -2q3 -1 5 -2q6 6 21 6l1 -2l2 2q12 0 19 -4q13 5 18 5h11q2 -1 12 -1l3 -3q3 1 4 4q10 0 18 -6v-10l-23 -20v-10h-34l-3 4l-1 -1h-3q-1 -1 -3 -1q-10 -2 -14 -2l-5 4h-1q-6 -2 -11 -2h-13l-3 2l-3 -2z
" />
    <glyph glyph-name="dieresis" unicode="&#xa8;" horiz-adv-x="182" 
d="M179 537q0 -46 -31 -46q-18 0 -31.5 15.5t-13.5 34.5q0 13 12.5 27t24.5 14q39 0 39 -45zM94 538q0 -46 -31 -46q-18 0 -31.5 15.5t-13.5 34.5q0 13 12.5 27t24.5 14q39 0 39 -45z" />
    <glyph glyph-name="cedilla" unicode="&#xb8;" horiz-adv-x="131" 
d="M118 39q-30 -34 -40 -50q31 -21 31 -54q0 -25 -29 -39l-40 -19q-2 -5 -9 -5q-10 0 -13 20q-1 1 -1 11q0 7 4 14q1 0 3.5 0.5t7 1.5t7.5 2q1 0 5 1.5t6 2.5q13 4 13 12q-2 8 -20 9q-3 0 -9 1q-4 5 -9 15v2q0 4 23 42q1 3 23 36z" />
    <glyph glyph-name="emdash" unicode="&#x2014;" horiz-adv-x="579" 
d="M585 151q0 -19 -44 -27h-82l-364 -3q-5 0 -14 -1q-5 0 -10 -0.5t-8 -0.5t-5.5 -0.5t-3.5 -0.5h-7q-22 0 -22 11q0 17 29 22h-1q27 3 53 4q26 0 61 -1q31 -1 167 -1h45q107 0 179 8l-1 -1q10 2 12 2q16 0 16 -11z" />
    <glyph glyph-name="AE" unicode="&#xc6;" horiz-adv-x="1126" 
d="M1139 115q0 -56 -128 -97q-99 -29 -168 -29q-97 0 -169 27q-3 -18 -27 -18q-16 0 -40 4q-27 35 -51 115l1 -1q-10 18 -13 48q-7 22 -14 54q-114 -6 -217 -13q-27 -45 -81 -131q-62 -96 -133 -96q-85 0 -125 79l6 6q5 3 14 10q1 0 2 1h2q9 -2 22 -2q0 -29 38 -29
q72 0 120 52q25 28 68 106q-2 1 -10 1l-36 -5q-34 0 -34 24q0 13 110 27q51 85 110 237q56 145 56 169v2q-1 1 -1 2q-3 4 -3 10q0 23 41 23q16 0 44 -19q30 -20 30 -33q0 -5 -1.5 -23t-1.5 -23q0 -136 34 -297q37 40 113 81q-86 35 -86 109q0 106 158 157q113 36 234 36
q45 0 67 -8l-1 1q41 -14 41 -54q0 -39 -26 -39q-12 13 -35 29l1 -1q-19 8 -42 8q-104 0 -209 -29q-141 -40 -141 -111q0 -27 44 -44h-1q35 -12 76 -12q17 0 50 3q29 4 49 4h-1q45 3 67 3h13q19 -13 19 -35v-5q0 -25 -27 -35q-24 15 -33 15q-86 0 -177 -36
q-109 -42 -138 -105l31 -124q71 -53 216 -53q37 0 94 9q64 10 88 22q21 10 57 30v33q54 0 54 -30zM509 330q-31 189 -32 220q-1 4 -1.5 13t-0.5 14v-1q-1 4 -2 4q-17 -34 -60 -151q-42 -110 -74 -173l182 4q-7 37 -12 70z" />
    <glyph glyph-name="ordfeminine" unicode="&#xaa;" horiz-adv-x="294" 
d="M186 305q1 1 1 4q-61 -52 -102 -52q-39 0 -39 40q0 53 63 128q64 76 116 76q31 0 31 -49q0 -13 -3 -28l20 6q-21 -80 -21 -109q0 -39 24 -39q8 0 18 6l16 -17q-52 -33 -79 -33q-44 0 -45 67zM300 230v-42h-256v42h256zM184 448l-10 -2q-62 -65 -62 -121q0 -18 13 -18
q33 0 86 87v6q0 48 -25 48h-2z" />
    <glyph glyph-name="Lslash" unicode="&#x141;" horiz-adv-x="653" 
d="M269 252l75 32q2 18 3 30q-1 0 -6 -1t-11 -2t-10 -1h1q-32 -5 -40 -5q-51 0 -51 25q0 12 19 31q14 -11 33 -11q41 0 70 13l32 177q13 77 43 123q25 40 57 40q51 0 106 -94l-1 1q1 -3 5 -9q1 -2 22 -37v1q10 -19 10 -52q0 -31 -37 -69q-56 -59 -170 -108v-4q0 -4 -0.5 -8
t-1 -6t-0.5 -3l58 25l18 -43l-82 -35q-9 -65 -23 -139q16 -11 111 -78q124 -88 183 -88h28q-23 -35 -55 -35q-46 0 -123 50h1q-95 60 -163 102q-21 -40 -36 -54q-47 -44 -136 -44q-80 0 -144 61t-64 140q0 25 20.5 47t44.5 22q68 0 161 -32q42 -15 118 -51q2 19 6 69
l-51 -22zM226 21q38 0 66.5 24.5t30.5 61.5q-131 90 -236 90q-37 0 -37 -21q0 -56 60 -105q61 -50 116 -50zM555 534q0 30 -12 61q-13 40 -38 40q-41 0 -78 -244q128 53 128 143z" />
    <glyph glyph-name="Oslash" unicode="&#xd8;" horiz-adv-x="492" 
d="M-19 175l69 54v11q0 259 130 428q26 33 51 33q7 0 21 -6q7 3 14 3q156 -9 192 -172l64 48l26 -35l-84 -61q3 -27 3 -57q0 -157 -36 -264q-57 -168 -183 -168q-80 0 -132 55q-48 54 -61 133l-52 -38zM241 37q171 0 171 389v13l-291 -213q6 -189 120 -189zM165 488
q-37 -108 -43 -208l286 210q-5 57 -33 106h1q-35 53 -90 53q-65 0 -121 -161z" />
    <glyph glyph-name="OE" unicode="&#x152;" horiz-adv-x="930" 
d="M942 115q0 -56 -128 -97q-99 -29 -168 -29q-209 0 -280 119q-60 -120 -165 -120q-98 0 -153 79q-48 69 -48 172q0 261 131 428q25 33 52 33q9 0 22 -6q7 3 13 3q170 -11 198 -192q14 92 157 138q111 36 233 36q44 0 66 -8l-1 1q42 -14 42 -54q0 -39 -26 -39
q-11 11 -35 29l1 -1q-19 8 -42 8q-103 0 -208 -29q-141 -40 -141 -111q0 -27 44 -44h-1q34 -12 76 -12q17 0 50 3q29 4 49 4h-1q45 3 66 3h13q19 -13 19 -35v-5q0 -25 -27 -35q-24 15 -32 15q-84 0 -175 -36q-105 -41 -136 -100q-5 -27 -12 -53q2 -73 93 -104
q69 -25 162 -25q36 0 93 9q67 10 89 22q3 2 22.5 12t33.5 18v33q54 0 54 -30zM367 425q0 85 -23 142q-32 81 -105 81q-68 0 -122 -161q-46 -135 -46 -246q0 -205 123 -205q173 0 173 389zM447 408q-15 14 -25 35q1 -3 1 -23q0 -64 -4 -96q36 28 82 53q-35 12 -54 31z" />
    <glyph glyph-name="ordmasculine" unicode="&#xba;" horiz-adv-x="293" 
d="M118 254q-59 0 -59 61q0 41 34 87l-1 17q76 48 125 48q60 0 60 -64q0 -53 -53 -101q-52 -48 -106 -48zM167 428q-9 0 -11 -1q-40 -43 -40 -82q0 -21 13 -35t32 -14q10 0 19 3q38 44 38 77q0 52 -51 52zM64 187v37h203v-37h-203z" />
    <glyph glyph-name="ae" unicode="&#xe6;" horiz-adv-x="444" 
d="M464 281q0 -6 -14 -65q-36 -145 -74 -195q-23 -29 -59 -29q-69 0 -91 93q-33 -85 -63 -85q-35 0 -57 48q-26 -65 -66 -65q-61 0 -61 133v13q0 39 22 126q28 106 57 106q48 0 62 -27l15 -32l39 -12q-26 -82 -35 -177v-8q0 -60 19 -60t79 227v-1l1 4q22 93 60 93
q24 0 44 -17.5t20 -40.5q0 -75 -42 -162q-21 -42 -39 -71q0 -15 14 -29q14 -17 25 -17q39 0 94 211q16 60 28 60q22 0 22 -21zM95 174l11 84l-11 14q-5 38 -14 38q-8 0 -20 -39q-35 -113 -35 -207q0 -35 16 -39q14 11 33 69q15 47 20 80zM317 300q0 22 -4 22q-2 -2 -3 -5
q-29 -90 -34 -176q14 30 23 62q18 63 18 97z" />
    <glyph glyph-name="lslash" unicode="&#x142;" horiz-adv-x="187" 
d="M-67 160l67 31q4 248 60 418l-1 -1q5 74 41 74q72 0 72 -107q0 -175 -92 -348l48 22l17 -43l-97 -44q2 -32 15 -72q18 -51 44 -51q27 0 78 184q4 4 4 8l-1 -1q9 42 11 50v-1q6 28 22 28q17 0 17 -24q0 -38 -38 -155q-47 -140 -95 -140q-49 0 -80 64q-19 40 -23 90
l-51 -23zM124 548q0 45 -4 60q-61 -217 -69 -334q24 52 45 126q28 97 28 148z" />
    <glyph glyph-name="oslash" unicode="&#xf8;" horiz-adv-x="273" 
d="M-18 111l56 43q2 80 15 111q-2 9 -2 24q3 13 7 17q0 2 1 6t2 9t2 11l3 11q10 40 42 40q25 0 57 -23q29 -22 39 -48h-1q3 -7 5 -32l34 24l25 -35l-57 -42q1 -6 1 -50q7 -6 14 -6q28 0 40 32q7 14 19 73q4 25 21 25q18 0 18 -18q0 -40 -26 -103q-24 -56 -66 -56
q-10 0 -25 7q0 -2 -2.5 -11t-4.5 -17l-1 -1q0 -2 -0.5 -4t-0.5 -5q-18 -53 -27 -66h1q-22 -34 -55 -34q-67 0 -77 109l-34 -26zM161 142q0 26 -3 46l-69 -49v-8q0 -93 32 -93q5 0 19 32q21 46 21 72zM103 246q-3 -22 -9 -50l54 40q-2 22 -2 27q0 18 1 21l2 20q0 24 -21 24
q-12 0 -25 -82z" />
    <glyph glyph-name="oe" unicode="&#x153;" horiz-adv-x="457" 
d="M476 282q0 -7 -14 -66q-36 -145 -74 -195q-23 -29 -59 -29q-46 0 -73 45q-22 37 -22 88v12q-16 -13 -37 -13q-11 0 -26 7q0 -2 -2.5 -11t-4.5 -17v-1q-1 -2 -1.5 -4t-0.5 -5q-15 -48 -28 -66h1q-22 -34 -55 -34q-80 0 -80 150q0 83 15 123q-2 2 -2 23q3 13 7 17
q2 10 6 26l3 12q10 40 42 40q28 0 56.5 -21.5t38.5 -48.5q10 -24 10 -137q7 -6 14 -6q29 0 41 32q7 8 19 73v-1q0 8 4 12l1 3h-1q22 78 56 78q25 0 44.5 -17t19.5 -41q0 -76 -42 -162q-24 -47 -39 -71q0 -15 14 -29q14 -17 25 -17q39 0 94 211q16 61 28 61q22 0 22 -21z
M126 142q0 17 -8 60t-8 61q0 10 1 21q0 4 0.5 9t1 8t0.5 4q0 23 -21 23q-12 0 -27 -84q-13 -74 -13 -113q0 -93 32 -93q6 0 20 32q22 48 22 72zM329 300q0 23 -4 23q-1 -1 -3 -6q-29 -91 -34 -176q13 25 23 62q18 65 18 97z" />
    <glyph glyph-name="germandbls" unicode="&#xdf;" horiz-adv-x="184" 
d="M129 366q-18 -30 -18 -50q0 -21 25 -67q4 3 21 6q14 2 17 2q1 0 3 -1t6 -2l8 -2q11 -5 15 -19v-4q0 -13 -44 -21l-2 -4q35 -65 35 -117q0 -16 -5 -33h1q-20 -65 -61 -65q-19 0 -36.5 19.5t-23.5 46.5l1 -1q-4 12 -4 33q0 59 41 130l-24 45q-17 32 -17 59
q-20 -158 -24 -269q-2 -37 -22 -214q-21 -188 -24 -188t-15.5 -2.5t-14.5 -2.5q-7 0 -9 8l20 219q-1 1 2 28t3 30q4 25 8 66l8 68q0 21 1 40l19 227q11 127 38 228q16 62 37 92.5t47 29.5q26 0 44 -25t18 -60v-9q0 -96 -74 -221zM95 505q-18 -89 -27 -172q6 28 34 74
q56 92 56 174q0 1 -2 19l1 -1q-5 14 -15 14q-12 0 -29 -47q-12 -35 -18 -61zM149 115q-4 17 -20 54q-24 -33 -24 -76l2 -14q11 -50 25 -50q20 0 20 58q0 16 -3 28zM167 218q-3 -2 -4 -7q5 5 9 7h-5z" />
    <glyph glyph-name="null" unicode="&#x2400;" horiz-adv-x="0" 
 />
    <glyph glyph-name="CR" horiz-adv-x="250" 
 />
    <glyph glyph-name="Scaron" unicode="&#x160;" horiz-adv-x="410" 
d="M402 71q0 -49 -53 -75q-42 -21 -98 -21q-145 0 -249 56q-25 13 -25 37q0 16 22 26q5 -6 29 -29q2 -2 59 -17q79 -21 152 -21q93 0 93 51q0 29 -21 38l-219 97q-72 31 -72 126q0 91 80 257q40 84 97 84q61 0 110 -48q50 -47 55 -108q5 -82 5 -126q0 -68 -31 -68t-31 43
q0 77 -9 154q-5 33 -24 64q-23 38 -51 38q-42 0 -88 -121q-43 -108 -43 -169q0 -30 16.5 -55.5t41.5 -36.5l171 -74q83 -36 83 -102zM175 870h4q10 0 22 -18q17 -42 32 -42q8 0 22 14l16 16v-1q13 13 22 13h3q13 -6 13 -18v-5q-3 -14 -35 -46q-32 -30 -45 -30q-14 0 -40 41
t-26 57v3q0 7 12 16z" />
    <glyph glyph-name="trademark" unicode="&#x2122;" horiz-adv-x="924" 
d="M902 239l7 -14q-14 -26 -29 -26q-46 0 -69 111q-13 62 -13 134v62q-3 -10 -29 -98q-47 -149 -93 -149q-58 0 -81 140q-13 92 -20 135q-1 -5 -4.5 -15.5t-10.5 -31t-13 -39.5q-33 -101 -56 -138q-50 -80 -109 -80q-41 0 -79 50l23 11q55 -11 58 -11q67 0 138 230
q34 108 34 175q0 42 33 42q19 0 56 -27q-10 -24 -10 -105q0 -69 9 -152q13 -124 38 -124q12 0 53 122q35 109 54 194q1 1 1 19v22q0 32 18 40q30 -2 40 -4q32 -6 35 -27q-10 -21 -20 -132q-9 -95 -9 -141q0 -60 5 -102v1q11 -65 43 -72zM530 690q-3 -22 -27 -22
q-92 0 -180 -7q-37 -203 -37 -337v-8q0 -19 7 -74q-2 1 -9.5 3t-16 5t-16.5 6q-18 20 -18 63q0 51 10 161q8 91 10 147q-28 -39 -48 -44h1q-52 -15 -112 -15q-87 0 -87 66q0 38 43 50q23 3 89 12q51 7 200 13q142 5 160 5q31 0 31 -22v-2zM102 614q72 0 151 25v14
q-17 -1 -57 -3q-143 -8 -143 -28q0 -8 49 -8z" />
    <glyph glyph-name="scaron" unicode="&#x161;" horiz-adv-x="146" 
d="M115 89q0 -103 -66 -103q-24 0 -45.5 19.5t-21.5 43.5q0 28 14 30q14 0 15 -24q10 -28 24 -28q32 0 32 66q0 41 -27 131q0 -1 -0.5 -3l-1.5 -6t-2 -7q-1 -1 -10 -38q-10 -40 -30 -40q-1 0 -5.5 0.5l-13.5 1.5q37 158 37 224q0 36 32 36q35 0 35 -29l-4 -22q-5 -28 -5 -29
q0 -38 21 -112q22 -72 22 -111zM11 613h3q10 0 21 -18q18 -42 30 -42q6 0 20 14l3 3q3 3 6.5 7t5.5 6v-1q12 13 21 13h2q12 -7 12 -17v-6q-3 -18 -31 -46q-27 -29 -43 -29q-14 0 -38 41q-22 38 -23 56q0 11 11 19z" />
    <glyph glyph-name="Ydieresis" unicode="&#x178;" horiz-adv-x="385" 
d="M392 636v-3q-20 -80 -31 -148q-15 -95 -15 -252q0 -71 4 -126q6 -92 6 -125q0 -88 -49 -162q-55 -84 -137 -84q-42 0 -126 32q-98 38 -98 77q0 27 34 27q9 0 65 -45q55 -45 90 -45q158 0 158 274q0 35 -4 107q-12 -33 -33 -83q-45 -80 -108 -80q-139 0 -139 203
q0 53 11 174t11 174q0 1 -1 16.5t-1 20.5q0 41 27 41q11 0 56 -39q0 -10 -6 -34q-5 -25 -5 -26v1q0 -2 -1 -4q-28 -109 -28 -322q0 -164 68 -164q56 0 103 116q34 82 43 164q16 145 27 321q1 27 33 27h3q43 0 43 -33zM304 800q0 -46 -31 -46q-18 0 -31.5 15.5t-13.5 34.5
q0 13 12.5 27t24.5 14q39 0 39 -45zM219 801q0 -46 -31 -46q-18 0 -31.5 15.5t-13.5 34.5q0 13 12.5 27t24.5 14q39 0 39 -45z" />
    <glyph glyph-name="nbspace" unicode="&#xa0;" horiz-adv-x="50" 
 />
    <glyph glyph-name="brokenbar" unicode="&#xa6;" horiz-adv-x="157" 
d="M61 323v356h48v-356h-48zM61 -168v353h48v-353h-48z" />
    <glyph glyph-name="copyright" unicode="&#xa9;" horiz-adv-x="748" 
d="M755 371q0 -184 -127 -320q-129 -139 -311 -139q-138 0 -228 90q-89 91 -89 228q0 164 117 309q129 160 305 160q132 0 233 -98q100 -97 100 -230zM703 373q0 113 -84 194q-82 82 -196 82q-153 0 -265 -136q-107 -130 -107 -284q0 -117 74 -191t191 -74q159 0 275 125
q112 121 112 284zM589 253q-58 -97 -151 -154v1q-81 -51 -138 -51q-168 0 -168 168q0 115 105 214q112 106 268 106q37 0 49 -32q6 -17 6 -61q0 -43 -35 -43q-9 0 -18.5 11t-9.5 21q0 13 -2 31l1 -2q-2 6 -11 6q-112 0 -198 -68q-90 -72 -90 -183q0 -104 103 -104
q41 0 109 44q80 53 123 130v-1q9 17 26 17h3q33 0 33 -33q0 -9 -5 -17z" />
    <glyph glyph-name="logicalnot" unicode="&#xac;" horiz-adv-x="577" 
d="M480 101v207h-429v66h494v-273h-65z" />
    <glyph glyph-name="minus" unicode="&#x2212;" horiz-adv-x="577" 
d="M51 167v58h494v-58h-494z" />
    <glyph glyph-name="registered" unicode="&#xae;" horiz-adv-x="748" 
d="M761 372q0 -184 -127 -320q-130 -139 -312 -139q-138 0 -228 90q-89 91 -89 228q0 161 118 309q127 160 305 160q132 0 233 -98q100 -97 100 -230zM709 374q0 111 -85 193q-85 83 -195 83q-153 0 -265 -136q-107 -130 -107 -284q0 -115 74 -191q74 -74 190 -74
q160 0 276 125q112 121 112 284zM628 443q0 -31 -42 -74q-33 -35 -69 -55q-101 -56 -171 -75q20 -48 62 -94q14 -17 42 -45q25 -22 46 -22q9 0 18 4q1 1 4 1.5t4 0.5q16 0 16 -21q-3 -3 -42 -25q-29 0 -55 17h1q-60 39 -144 142q-5 5 -15 23v-1q-2 2 -1 2q-4 0 -4 -22v-44
q0 -3 -1 -22.5t-1 -23.5q0 -31 8 -89q-7 -19 -22 -19q-19 0 -29 19q-9 16 -9 35v22q0 68 4 145q6 130 6 168q0 9 3 43l2 24q-27 -9 -42 -17l-38 -20l10 -8q-20 -14 -27 -14q-20 0 -20 26t62 58q30 15 50 23l4 2q0 2 1 4v3q4 43 4 45q34 -4 39 -8q7 -6 16 -20q133 22 179 22
q56 0 100 -26q51 -31 51 -84zM559 458q0 49 -80 49q-65 0 -178 -32q0 -6 -3 -39.5t-5 -63.5q-9 -110 -9 -99q83 16 157 53q42 21 76 55q42 42 42 77z" />
    <glyph glyph-name="degree" unicode="&#xb0;" horiz-adv-x="374" 
d="M230 354q-63 0 -105 43t-42 107q0 62 42 106t105 44q60 0 104 -45q43 -43 43 -105q0 -63 -43 -106q-42 -44 -104 -44zM229 601q-39 0 -66 -28.5t-27 -68.5t26.5 -67.5t66.5 -27.5t68 27.5t28 67.5q0 41 -27.5 69t-68.5 28z" />
    <glyph glyph-name="plusminus" unicode="&#xb1;" horiz-adv-x="642" 
d="M592 314h-229v-231h-65v231h-229v66h229v233h65v-233h229v-66zM69 -69v66h523v-66h-523z" />
    <glyph glyph-name="twosuperior" unicode="&#xb2;" horiz-adv-x="281" 
d="M206 394q-27 -20 -57 -45q39 6 63 6q36 0 78 -7l12 -14l-60 -53q-82 14 -113 14q-35 0 -73 -26l-16 16q42 43 92 83q88 72 93 110v-1q-2 29 -38 29q-37 0 -72 -29q-7 -6 -15 -6h-13q0 25 42 60q50 42 104 42q33 0 54 -16.5t21 -41.5q0 -48 -102 -121z" />
    <glyph glyph-name="threesuperior" unicode="&#xb3;" horiz-adv-x="277" 
d="M284 522q0 -37 -62 -78q55 -3 55 -52q0 -68 -97 -111q-31 -37 -81 -37h-11q-28 0 -31 30q4 4 47 34q17 -17 32 -17q23 0 47 21q24 22 24 45q0 40 -58 40q-12 0 -49 -8l-13 13q28 20 42 40h10q29 0 51 12q26 14 26 41q0 16 -12 26.5t-29 10.5q-19 0 -56 -27l-13 14
q52 60 108 60q30 0 50 -16.5t20 -40.5z" />
    <glyph glyph-name="onesuperior" unicode="&#xb9;" horiz-adv-x="268" 
d="M197 300l-6 -7q-44 -23 -61 -41l-16 9l53 232l-66 -47l-16 23l21 16q10 8 51 38.5t73 53.5l16 -16q-35 -146 -49 -261z" />
    <glyph glyph-name="onequarter" unicode="&#xbc;" horiz-adv-x="467" 
d="M65 -10l-27 22l395 450l28 -23zM384 53h-30l-8 -42q-12 -4 -65 -32l20 74h-90l-6 15q21 31 149 136l16 13l16 -6l-23 -116h75zM196 276l-6 -6q-31 -15 -71 -43l45 170l-51 -28l-10 27q57 29 119 71l17 -9q-27 -93 -43 -182zM322 143q-38 -33 -53 -50h42z" />
    <glyph glyph-name="onehalf" unicode="&#xbd;" horiz-adv-x="468" 
d="M334 71v-1q-10 -6 -28 -18q37 5 50 5h6l43 -2l7 -16l-38 -39q-29 7 -68 7q-38 0 -92 -10l-13 15l23 17q14 10 46 33q84 60 84 76q0 15 -33 15q-28 0 -60 -17l-15 15q63 54 105 54q29 0 48 -13t19 -34q0 -30 -84 -87zM63 -10l-26 22l398 448l27 -24zM198 273l-60 -39h-15
l37 160l-51 -28l-14 24l44 25q39 22 85 52l15 -10q-20 -74 -41 -184z" />
    <glyph glyph-name="threequarters" unicode="&#xbe;" horiz-adv-x="468" 
d="M376 43h-29l-6 -41q-33 -11 -49 -23l-13 7l14 56h-94l-5 17q2 2 11 12t15 17q62 56 146 122l18 -9l-27 -116h80zM61 -10l-28 22l400 451l28 -23zM253 428q0 -26 -56 -58q37 -12 37 -38q0 -30 -42 -56v1q-37 -25 -81 -25q-25 0 -39 20q21 21 40 27q21 -9 36 -9q30 0 30 21
q0 23 -39 25h-1q-1 0 -3.5 -0.5t-6.5 -1.5t-9.5 -1.5t-12.5 -1.5l-8 18l33 27q60 6 60 30q0 12 -18 12q-21 0 -58 -15l-14 19l51 38q24 6 41 6q60 0 60 -38zM314 131q-11 -8 -55 -47h44z" />
    <glyph glyph-name="Agrave" unicode="&#xc0;" horiz-adv-x="657" 
d="M664 22l3 -6q0 -18 -27 -18q-16 0 -40 4q-36 45 -76 217q-115 -6 -215 -13q-33 -59 -80 -132q-61 -96 -131 -96q-85 0 -123 80l6 6q2 2 13 9q1 0 2 1h2q9 -2 21 -2q0 -29 38 -29q68 0 119 53q23 25 67 106q-2 1 -10 1l-18 -3q-4 -1 -18 -1q-33 0 -33 23q0 15 109 27
q49 82 109 239q55 141 55 169v2q-1 1 -1 2q-3 6 -3 11q0 22 40 22q17 0 45 -19q29 -18 29 -33q0 -4 -2 -23.5t-2 -21.5q0 -128 41 -327q35 -167 58 -226q0 -2 16 -17l2 -1zM503 332q-31 195 -32 221q-1 4 -1.5 13t-0.5 14v-1q-1 4 -2 4q-19 -43 -59 -152q-45 -121 -73 -174
l180 4q-7 42 -12 71zM481 763l-13 -13l-49 30q-14 8 -20 11l1 -1q-32 20 -32 39q0 25 28 31l-1 -1q8 2 10 2q21 0 32 -20v1q3 -3 11 -10.5t13 -12.5q27 -25 27 -37q0 -6 -7 -19z" />
    <glyph glyph-name="Aacute" unicode="&#xc1;" horiz-adv-x="657" 
d="M664 22l3 -6q0 -18 -27 -18q-16 0 -40 4q-36 45 -76 217q-115 -6 -215 -13q-33 -59 -80 -132q-61 -96 -131 -96q-85 0 -123 80l6 6q2 2 13 9q1 0 2 1h2q9 -2 21 -2q0 -29 38 -29q68 0 119 53q23 25 67 106q-2 1 -10 1l-18 -3q-4 -1 -18 -1q-33 0 -33 23q0 15 109 27
q49 82 109 239q55 141 55 169v2q-1 1 -1 2q-3 6 -3 11q0 22 40 22q17 0 45 -19q29 -18 29 -33q0 -4 -2 -23.5t-2 -21.5q0 -128 41 -327q35 -167 58 -226q0 -2 16 -17l2 -1zM503 332q-31 195 -32 221q-1 4 -1.5 13t-0.5 14v-1q-1 4 -2 4q-19 -43 -59 -152q-45 -121 -73 -174
l180 4q-7 42 -12 71zM592 829q0 -18 -33 -39q-1 0 -17 -10l-52 -31l-10 17v-1q-8 11 -8 17q0 9 28 37q4 6 21 21q12 21 34 21q1 0 11 -2l-1 1q27 -4 27 -31z" />
    <glyph glyph-name="Acircumflex" unicode="&#xc2;" horiz-adv-x="657" 
d="M664 22l3 -6q0 -18 -27 -18q-16 0 -40 4q-36 45 -76 217q-115 -6 -215 -13q-33 -59 -80 -132q-61 -96 -131 -96q-85 0 -123 80l6 6q5 5 13 9q1 0 2 1h2q9 -2 21 -2q0 -29 38 -29q68 0 119 53q23 25 67 106q-2 1 -10 1q-4 -4 -36 -4q-33 0 -33 23q0 15 109 27
q49 82 109 239q55 141 55 169v2q-1 1 -1 2q-3 6 -3 11q0 22 40 22q16 0 44 -19q30 -18 30 -32q0 -3 -2 -22.5t-2 -23.5q0 -128 41 -327q35 -167 58 -226q0 -2 16 -17l2 -1zM503 332q-31 195 -32 221q-1 4 -1.5 13t-0.5 14v-1q-1 4 -2 4q-26 -63 -59 -152q-45 -121 -73 -174
l180 4q-7 42 -12 71zM565 755l-6 -2q-11 0 -23 19l-3 6q-8 8 -15 25l1 -1q-8 11 -16 11q-9 0 -22 -13l-2 -2q-26 -26 -37 -26h-4q-12 6 -12 17v6q5 17 34 45q32 30 46 30h1q11 0 38 -42q28 -40 28 -55v-3q0 -10 -8 -15z" />
    <glyph glyph-name="Atilde" unicode="&#xc3;" horiz-adv-x="657" 
d="M664 22l3 -6q0 -18 -27 -18q-16 0 -40 4q-36 45 -76 217q-115 -6 -215 -13q-33 -59 -80 -132q-61 -96 -131 -96q-85 0 -123 80l6 6q5 5 13 9q1 0 2 1h2q9 -2 21 -2q0 -29 38 -29q68 0 119 53q23 25 67 106q-2 1 -10 1l-18 -3h-10q-3 -1 -8 -1q-33 0 -33 23q0 15 109 27
q49 82 109 239q55 141 55 169v2q-1 1 -1 2q-3 6 -3 11q0 22 40 22q16 0 44 -19q30 -18 30 -32q0 -3 -2 -22.5t-2 -23.5q0 -128 41 -327q35 -167 58 -226q0 -2 16 -17l2 -1zM503 332q-31 195 -32 221q-1 4 -1.5 13t-0.5 14v-1q-1 4 -2 4q-26 -63 -59 -152q-45 -121 -73 -174
l180 4q-7 42 -12 71zM536 754l-1 1q-23 15 -48 41q-17 23 -29 23q-5 0 -9 -13q-7 -22 -18 -22q-15 0 -15 28q0 46 33 54q2 0 4 1h3q19 0 51 -29q8 -11 34 -30q1 -1 4 -1q5 0 25 32l3 5q3 5 5 10q18 -12 18 -30q0 -27 -16 -50t-34 -23q-7 0 -10 3z" />
    <glyph glyph-name="Adieresis" unicode="&#xc4;" horiz-adv-x="657" 
d="M664 22l3 -6q0 -18 -27 -18q-16 0 -40 4q-36 45 -76 217q-115 -6 -215 -13q-33 -59 -80 -132q-61 -96 -131 -96q-85 0 -123 80l6 6q2 2 13 9q1 0 2 1h2q9 -2 21 -2q0 -29 38 -29q68 0 119 53q23 25 67 106q-2 1 -10 1l-18 -3q-16 -2 -18 -2q-33 0 -33 24q0 14 109 27
q49 82 109 239q55 141 55 169v2q-1 1 -1 2q-3 6 -3 11q0 22 40 22q16 0 44 -19q30 -19 30 -33q0 -4 -2 -23t-2 -23q0 -127 41 -326q35 -167 58 -226q0 -2 16 -17l2 -1zM503 331q-31 192 -32 221q-1 4 -1 14t-1 14v-1q-1 4 -2 4q-8 -16 -59 -152q-45 -119 -73 -174l180 4
q-1 5 -2.5 14t-4.5 26t-5 30zM567 800q0 -46 -31 -46q-18 0 -31.5 15.5t-13.5 34.5q0 13 12.5 27t24.5 14q39 0 39 -45zM482 801q0 -46 -31 -46q-18 0 -31.5 15.5t-13.5 34.5q0 13 12.5 27t24.5 14q39 0 39 -45z" />
    <glyph glyph-name="Aring" unicode="&#xc5;" horiz-adv-x="657" 
d="M664 23l3 -7q0 -18 -27 -18q-16 0 -40 4q-36 45 -76 217q-71 -3 -215 -12q-16 -29 -80 -133q-61 -96 -131 -96q-85 0 -123 80l6 6q5 5 13 9q1 0 2 1h2q9 -2 21 -2q0 -29 38 -29q69 0 119 53q27 28 67 107q-2 1 -10 1l-18 -3q-16 -2 -18 -2q-33 0 -33 23q0 15 109 28
q49 82 109 239q55 141 55 169v2q-1 1 -1 2q-3 6 -3 11q0 22 40 22q17 0 45 -19q29 -18 29 -33q0 -3 -2 -22.5t-2 -23.5q0 -128 41 -327q3 -15 26 -116q21 -86 33 -113q5 -8 15 -14zM503 332q-31 193 -32 221q-1 5 -1 14t-1 14v-1q-1 4 -2 4q-8 -16 -59 -152
q-45 -119 -73 -174l180 3q-7 35 -12 71zM509 754q-49 0 -49 57q0 32 22 64q30 45 65 45q41 0 50 -44q0 -2 1 -5v-6q0 -27 -26 -68q-28 -43 -63 -43zM539 869q-11 0 -24 -21h1q-11 -20 -11 -32v-4q1 -9 7 -9q15 0 26 20h-1q13 19 13 32v5q-3 9 -11 9z" />
    <glyph glyph-name="Ccedilla" unicode="&#xc7;" horiz-adv-x="408" 
d="M199 -10q-15 -19 -20 -27q32 -20 36 -52q0 -2 1 -4v-3q0 -22 -30 -40q-9 -4 -50 -23q-2 -5 -11 -5q-12 0 -15 21q-1 2 -1 13q0 2 5 15q1 0 4.5 1t7.5 2l8 2q28 9 28 16v1q-4 6 -24 10h-5q-2 1 -5 1q-7 7 -10 16v3q0 6 4 13q1 2 4.5 7t10.5 15.5t14 20.5
q-72 11 -111.5 71.5t-39.5 153.5q0 107 41 242q51 165 128 215h-1q21 15 61 15q47 0 91 -22q51 -25 67 -64q10 -24 10 -76q0 -36 -11 -99q-17 -86 -42 -86q-18 0 -28 22q-9 18 -9 37q0 26 17 92v-1q16 63 16 92q0 28 -37 44q-32 15 -61 15q-66 0 -121 -157
q-53 -151 -53 -294q0 -155 109 -155q101 0 195 73l18 34q29 -3 29 -23q0 -2 -1.5 -6t-4 -11.5l-4.5 -13.5q-32 -42 -92 -71q-58 -27 -118 -30z" />
    <glyph glyph-name="Egrave" unicode="&#xc8;" horiz-adv-x="576" 
d="M587 114q0 -57 -127 -97q-98 -29 -165 -29q-115 0 -191 39q-104 54 -104 159q0 65 47 117q36 37 104 75q-84 33 -84 110q0 106 155 157q110 36 231 36q48 0 65 -7l-1 1q41 -14 41 -55q0 -39 -25 -39q-11 11 -35 29l1 -1q-19 8 -42 8q-101 0 -205 -29q-139 -40 -139 -112
q0 -27 44 -44h-1q33 -12 74 -12q16 0 49 3q29 4 49 4h-1q45 3 66 3h12q20 -14 20 -35v-5q0 -25 -28 -35q-22 15 -31 15q-84 0 -185 -42q-135 -56 -135 -146q0 -72 92 -107q68 -25 161 -25q36 0 92 10q65 10 87 22q51 28 56 29v34q53 0 53 -31zM365 763l-13 -13l-49 30
q-14 8 -20 11l1 -1q-32 20 -32 39q0 24 27 30v-1q8 2 10 2q19 0 32 -19v1l3 -4l9 -9t11 -10q27 -25 27 -37q0 -6 -6 -19z" />
    <glyph glyph-name="Eacute" unicode="&#xc9;" horiz-adv-x="576" 
d="M587 114q0 -57 -127 -97q-98 -29 -165 -29q-115 0 -191 39q-104 54 -104 159q0 65 47 117q36 37 104 75q-84 33 -84 110q0 106 155 157q110 36 231 36q48 0 65 -7l-1 1q41 -14 41 -55q0 -39 -25 -39q-11 11 -35 29l1 -1q-19 8 -42 8q-101 0 -205 -29q-139 -40 -139 -112
q0 -27 44 -44h-1q33 -12 74 -12q14 0 49 3q5 0 21.5 1.5t26.5 2.5q49 3 66 3h12q20 -14 20 -35v-5q0 -25 -28 -35q-22 15 -31 15q-84 0 -185 -42q-135 -56 -135 -146q0 -72 92 -107q68 -25 161 -25q36 0 92 10q65 10 87 22q51 28 56 29v34q53 0 53 -31zM458 829
q0 -19 -32 -39q-1 0 -17 -10l-52 -31l-10 16q-8 8 -8 17t28 37q5 6 21 21q12 20 34 20l10 -2l-1 1q27 -5 27 -30z" />
    <glyph glyph-name="Ecircumflex" unicode="&#xca;" horiz-adv-x="576" 
d="M587 114q0 -57 -127 -97q-98 -29 -165 -29q-115 0 -191 39q-104 54 -104 159q0 65 47 117q36 37 104 75q-84 33 -84 110q0 106 155 157q111 37 231 37q43 0 65 -8l-1 1q41 -14 41 -55q0 -39 -25 -39q-11 11 -35 29l1 -1q-19 8 -42 8q-101 0 -205 -29q-139 -40 -139 -112
q0 -27 44 -44h-1q33 -12 74 -12q14 0 49 3q5 0 21.5 1.5t26.5 2.5q49 3 66 3h12q20 -14 20 -35v-5q0 -25 -28 -35q-22 15 -31 15q-84 0 -185 -42q-135 -56 -135 -146q0 -72 92 -107q68 -25 161 -25q36 0 92 10q65 10 87 22q51 28 56 29v34q53 0 53 -31zM454 755l-6 -2
q-13 0 -23 19l-3 5q-10 16 -15 26l1 -1q-8 11 -15 11q-10 0 -23 -13l-2 -2q-26 -26 -36 -26h-4q-13 4 -13 17v6q4 16 34 46q29 28 47 28q12 0 38 -39q28 -41 28 -57v-3q0 -9 -8 -15z" />
    <glyph glyph-name="Edieresis" unicode="&#xcb;" horiz-adv-x="576" 
d="M587 114q0 -57 -127 -97q-98 -29 -165 -29q-115 0 -191 39q-104 54 -104 159q0 65 47 117q36 37 104 75q-46 20 -63 40q-21 26 -21 70q0 106 155 157q110 36 231 36q43 0 65 -8l-1 1q41 -14 41 -54t-25 -40q-16 16 -35 30l1 -1q-19 8 -42 8q-101 0 -205 -30
q-139 -40 -139 -111q0 -27 44 -44h-1q33 -12 74 -12q14 0 49 3q5 0 21.5 1.5t26.5 2.5q49 3 66 3h12q20 -14 20 -35v-5q0 -25 -28 -35q-23 14 -31 14q-84 0 -185 -42q-135 -55 -135 -145q0 -72 92 -107q68 -25 161 -25q36 0 92 10q61 10 87 22q2 1 8.5 4.5t20 10.5t27.5 14
v34q53 0 53 -31zM464 800q0 -46 -31 -46q-18 0 -31.5 15.5t-13.5 34.5q0 13 12.5 27t24.5 14q39 0 39 -45zM379 801q0 -46 -31 -46q-18 0 -31.5 15.5t-13.5 34.5q0 13 12.5 27t24.5 14q39 0 39 -45z" />
    <glyph glyph-name="Igrave" unicode="&#xcc;" horiz-adv-x="285" 
d="M325 636l-4 -12q-30 -17 -43 -18l-89 -15q-42 -157 -42 -476q0 -8 2 -70l53 2q59 0 59 -26q-7 -11 -54 -22q-61 -14 -132 -14q-96 0 -98 20q-1 9 13.5 15t43.5 10l58 7q0 7 -3 30q0 6 -0.5 13t-1 10.5t-0.5 5.5q0 59 4 136l6 136l7 219q-36 0 -114 5q30 28 57 44l178 17
q10 0 40 -1t39 -1q15 0 21 -15zM131 763l-13 -13l-48 30q-2 0 -8.5 4.5t-10.5 6.5l1 -1q-31 19 -31 39q0 24 26 30l-1 -1q10 2 11 2q19 0 31 -19v1l23 -23q26 -26 26 -37q0 -6 -6 -19z" />
    <glyph glyph-name="Iacute" unicode="&#xcd;" horiz-adv-x="285" 
d="M325 636l-4 -12q-30 -17 -43 -18l-89 -15q-42 -157 -42 -476q0 -8 2 -70l53 2q59 0 59 -26q-7 -11 -54 -22q-61 -14 -132 -14q-96 0 -98 20q-1 9 13.5 15t43.5 10l58 7q0 7 -3 30q0 6 -0.5 13t-1 10.5t-0.5 5.5q0 59 4 136l6 136l7 219q-36 0 -114 5q30 28 57 44l178 17
q10 0 40 -1t39 -1q15 0 21 -15zM274 829q0 -18 -32 -39l-2 -2q-2 -1 -6 -3.5t-8 -4.5l-51 -31l-9 17v-1q-8 8 -8 17q0 11 26 37l21 21q11 20 33 20q1 0 11 -2l-1 1q26 -5 26 -30z" />
    <glyph glyph-name="Icircumflex" unicode="&#xce;" horiz-adv-x="285" 
d="M325 637l-4 -13q-30 -17 -43 -18l-89 -15q-42 -157 -42 -476q0 -8 2 -70l53 2q59 0 59 -26q-7 -11 -54 -22q-61 -14 -132 -14q-96 0 -98 20q-1 9 13.5 15t43.5 10l58 7q0 7 -3 30q0 6 -0.5 13t-1 10.5t-0.5 5.5q0 59 4 136l6 136l7 219q-36 0 -114 5q30 28 57 44l178 17
q10 0 40 -1t39 -1q15 0 21 -14zM231 755l-6 -2q-10 0 -23 19l-2 5q-1 2 -6 11t-9 15l1 -1q-5 11 -15 11q-9 0 -22 -13l-1 -2q-26 -26 -36 -26h-4q-12 4 -12 17v6q4 17 33 45q29 29 45 29h1q12 0 38 -41t26 -55v-3q0 -10 -8 -15z" />
    <glyph glyph-name="Idieresis" unicode="&#xcf;" horiz-adv-x="285" 
d="M325 636l-4 -12q-30 -17 -43 -18l-89 -16q-42 -152 -42 -475q0 -8 2 -70l53 2q59 0 59 -26q-7 -11 -54 -22q-61 -14 -132 -14q-96 0 -98 20q-1 9 13.5 15t43.5 10l58 7q0 7 -3 30q0 6 -0.5 13t-1 10.5t-0.5 5.5q0 58 4 135l6 136l7 219q-36 0 -114 5q28 28 57 44
q161 18 178 18q10 0 40 -1t39 -1q15 0 21 -15zM246 800q0 -46 -31 -46q-18 0 -31.5 15.5t-13.5 34.5q0 13 12.5 27t24.5 14q39 0 39 -45zM161 801q0 -46 -31 -46q-18 0 -31.5 15.5t-13.5 34.5q0 13 12.5 27t24.5 14q39 0 39 -45z" />
    <glyph glyph-name="Ntilde" unicode="&#xd1;" horiz-adv-x="516" 
d="M535 678q0 -2 -18 -47l1 1q-26 -115 -41 -283q-14 -168 -14 -288q0 -3 3 -18v1q0 -5 0.5 -9t1.5 -6v-2q0 -30 -53 -30q-44 0 -70 39v-1q-8 15 -33 91h1q-45 130 -85 376q-4 -20 -31 -214q-18 -131 -47 -208q-40 -102 -125 -102q-70 0 -70 40q0 25 22 25q9 0 23 -14l-8 -7
q3 -1 15 -1q104 0 156 352q29 200 29 274q0 16 -1 17q23 33 48 33q60 0 60 -45q0 -128 25 -321q33 -264 82 -264q7 0 9 44l6 132q1 32 23 258q13 142 58 202q33 -5 33 -25zM405 754l-1 1q-18 12 -47 41q-17 23 -29 23q-5 0 -9 -13q-7 -22 -18 -22q-15 0 -15 28q0 46 33 54
q2 0 4 1h3q19 0 51 -29q11 -14 34 -30q1 -1 4 -1q4 0 24 32q3 3 9 15q17 -14 17 -30q0 -26 -16.5 -49.5t-32.5 -23.5q-6 0 -11 3z" />
    <glyph glyph-name="Ograve" unicode="&#xd2;" horiz-adv-x="416" 
d="M412 422q0 -156 -36 -266q-56 -168 -180 -168q-96 0 -150 80q-46 68 -46 172q0 105 22 200q25 113 74 185q10 13 19 26t13 18l3 5q24 30 47 30q11 0 21 -7q8 5 14 4q199 -13 199 -279zM358 427q0 86 -22 142q-31 82 -103 82q-67 0 -120 -161q-43 -129 -43 -248
q0 -206 119 -206q169 0 169 391zM213 763l-13 -13l-48 30q-6 4 -19 11l1 -1q-32 20 -32 39q0 24 27 30l-1 -1q2 0 5 1q4 1 5 1q19 0 32 -19v1l23 -23q26 -26 26 -37q0 -6 -6 -19z" />
    <glyph glyph-name="Oacute" unicode="&#xd3;" horiz-adv-x="416" 
d="M412 422q0 -156 -36 -266q-56 -168 -180 -168q-96 0 -150 80q-46 68 -46 172q0 105 22 200q25 113 74 185q10 13 19 26t13 18l3 5q24 30 47 30q11 0 21 -7q8 5 14 4q199 -13 199 -279zM358 427q0 86 -22 142q-31 82 -103 82q-67 0 -120 -161q-43 -129 -43 -248
q0 -206 119 -206q169 0 169 391zM370 829q0 -19 -32 -39q-1 0 -3.5 -1.5t-6 -4t-7.5 -4.5l-51 -31l-10 16q-7 7 -7 17q0 11 26 37l21 21q12 20 34 20q2 0 10 -2l-1 1q27 -5 27 -30z" />
    <glyph glyph-name="Ocircumflex" unicode="&#xd4;" horiz-adv-x="416" 
d="M412 422q0 -156 -36 -266q-56 -168 -180 -168q-96 0 -150 81q-46 70 -46 172q0 104 22 199q25 113 74 185q28 40 34 49q26 30 48 30q11 0 21 -7q8 5 14 4q199 -13 199 -279zM358 427q0 86 -22 142q-31 82 -103 82q-67 0 -120 -161q-43 -129 -43 -247q0 -207 119 -207
q169 0 169 391zM329 755l-6 -2q-10 0 -23 19l-2 5q-1 2 -6 11t-9 15l1 -1q-8 11 -15 11q-9 0 -22 -13l-2 -2q-26 -26 -36 -26h-4q-12 4 -12 17v6q4 17 33 46q28 28 46 28h1q11 0 37 -39q28 -43 28 -57v-3q0 -9 -9 -15z" />
    <glyph glyph-name="Otilde" unicode="&#xd5;" horiz-adv-x="416" 
d="M412 422q0 -156 -36 -266q-56 -168 -180 -168q-96 0 -150 81q-46 70 -46 172q0 261 128 430q26 33 50 33q11 0 21 -7q8 5 14 4q199 -13 199 -279zM358 427q0 86 -22 142q-31 82 -103 82q-67 0 -120 -161q-43 -129 -43 -248q0 -206 119 -206q169 0 169 391zM282 754l-1 1
q-25 17 -46 41q-16 22 -29 22q-4 0 -9 -12q-6 -22 -18 -22q-14 0 -14 28q0 45 32 53q2 0 4 1h3q20 0 51 -28q13 -17 33 -30q1 -1 4 -1q4 0 24 32q3 3 8 15q17 -12 17 -31q0 -26 -16 -49t-32 -23q-7 0 -11 3z" />
    <glyph glyph-name="Odieresis" unicode="&#xd6;" horiz-adv-x="416" 
d="M412 422q0 -156 -36 -266q-56 -168 -180 -168q-96 0 -150 80q-46 68 -46 172q0 105 22 200q26 115 74 184q5 8 33 46q24 34 49 34q11 0 21 -7q8 5 14 4q199 -13 199 -279zM358 427q0 86 -22 142q-31 82 -103 82q-67 0 -120 -161q-43 -129 -43 -248q0 -206 119 -206
q169 0 169 391zM358 800q0 -46 -31 -46q-18 0 -31.5 15.5t-13.5 34.5q0 13 12.5 27t24.5 14q39 0 39 -45zM273 801q0 -46 -31 -46q-18 0 -31.5 15.5t-13.5 34.5q0 13 12.5 27t24.5 14q39 0 39 -45z" />
    <glyph glyph-name="multiply" unicode="&#xd7;" horiz-adv-x="574" 
d="M480 18l-184 188l-182 -188l-46 47l183 187l-183 187l46 47l182 -188l184 188l46 -47l-184 -187l184 -187z" />
    <glyph glyph-name="Ugrave" unicode="&#xd9;" horiz-adv-x="523" 
d="M531 586l2 -13q-22 -40 -28 -95l-31 -305v-98q0 -82 28 -101q-20 -15 -37 -15q-38 0 -46 83q-1 3 -4 89q-30 -62 -43 -79q-45 -64 -107 -64q-160 0 -160 250q0 86 31 220q-55 -40 -93 -40q-31 0 -76 49q34 -6 44 -6q110 0 203 208q65 -21 65 -44q0 -8 -15 -29
q-4 -5 -11.5 -14t-10.5 -14q-71 -174 -71 -339q0 -85 13 -128h-1q23 -69 82 -69q51 0 94 88q29 56 48 132q37 139 37 266q0 47 -4 62v-1q-3 11 -3 24q9 17 28 17q23 0 66 -34zM364 763l-13 -13l-49 31q-1 0 -8.5 4.5t-10.5 5.5h1q-32 17 -32 39q0 24 27 30l-1 -1q10 2 11 2
q20 0 31 -20v1q9 -9 24 -22q27 -26 27 -37q0 -7 -7 -20z" />
    <glyph glyph-name="Uacute" unicode="&#xda;" horiz-adv-x="523" 
d="M531 586l2 -13q-22 -40 -28 -95l-31 -305v-98q0 -82 28 -101q-20 -15 -37 -15q-38 0 -46 83q-1 3 -4 89q-30 -62 -43 -79q-45 -64 -107 -64q-160 0 -160 250q0 86 31 220q-55 -40 -93 -40q-31 0 -76 49q34 -6 44 -6q110 0 203 208q65 -21 65 -44q0 -8 -15 -29
q-4 -5 -11.5 -14t-10.5 -14q-71 -174 -71 -339q0 -85 13 -128h-1q23 -69 82 -69q51 0 94 88q29 56 48 132q37 139 37 266q0 47 -4 62v-1q-3 11 -3 24q9 17 28 17q23 0 66 -34zM513 830q0 -19 -32 -39q-1 0 -3.5 -1.5t-6 -4t-7.5 -4.5l-52 -32l-10 17v-1q-7 10 -7 18
q0 11 27 37q3 6 21 20q12 21 34 21q2 0 10 -2l-1 1q27 -4 27 -30z" />
    <glyph glyph-name="Ucircumflex" unicode="&#xdb;" horiz-adv-x="523" 
d="M531 586l2 -13q-7 -11 -18 -45q-9 -36 -10 -49l-31 -306v-98q0 -82 28 -101q-20 -15 -37 -15q-38 0 -46 83q-1 3 -4 89q-30 -62 -43 -79q-45 -64 -107 -64q-160 0 -160 250q0 86 31 220q-58 -40 -93 -40q-30 0 -76 49q34 -6 44 -6q110 0 203 208q65 -20 65 -44
q0 -9 -15 -28q-6 -7 -22 -28q-71 -177 -71 -340q0 -85 13 -128h-1q23 -69 82 -69q51 0 94 88q29 56 48 132q37 139 37 266q0 49 -4 62v-1q-3 11 -3 24q9 17 28 17q23 0 66 -34zM453 755l-6 -1q-14 0 -23 18l-3 6q-1 1 -3.5 5.5t-5.5 9.5l-6 10l1 -1q-8 11 -15 11
q-10 0 -22 -13l-2 -1q-27 -27 -37 -27h-4q-12 6 -12 18v6q3 14 33 45q35 29 47 29h1q12 0 37 -39q28 -41 28 -58v-3q0 -9 -8 -15z" />
    <glyph glyph-name="Udieresis" unicode="&#xdc;" horiz-adv-x="523" 
d="M531 586l2 -13q-22 -40 -28 -95l-31 -305v-98q0 -82 28 -101q-20 -15 -37 -15q-38 0 -46 83q-1 3 -4 89q-30 -62 -43 -79q-45 -64 -107 -64q-160 0 -160 250q0 86 31 220q-55 -40 -93 -40q-29 0 -76 48q42 -5 44 -5q110 0 203 208q65 -21 65 -44q0 -10 -16 -29
q-20 -23 -21 -28q-71 -172 -71 -339q0 -85 13 -128h-1q23 -69 82 -69q51 0 94 88q29 56 48 132q37 139 37 265q0 48 -4 63v-1q-3 11 -3 23q9 18 28 18q23 0 66 -34zM464 800q0 -46 -31 -46q-18 0 -31.5 15.5t-13.5 34.5q0 13 12.5 27t24.5 14q39 0 39 -45zM379 801
q0 -46 -31 -46q-18 0 -31.5 15.5t-13.5 34.5q0 13 12.5 27t24.5 14q39 0 39 -45z" />
    <glyph glyph-name="Yacute" unicode="&#xdd;" horiz-adv-x="385" 
d="M392 636v-3q-20 -80 -31 -148q-15 -95 -15 -252q0 -71 4 -126q6 -92 6 -125q0 -88 -49 -162q-55 -84 -137 -84q-42 0 -126 32q-98 38 -98 77q0 27 34 27q9 0 65 -45q55 -45 90 -45q158 0 158 274q0 35 -4 107q-12 -33 -33 -83q-45 -80 -108 -80q-139 0 -139 203
q0 53 11 174t11 174q0 7 -0.5 16t-1 14t-0.5 8q0 40 27 40q9 0 56 -38l-12 -59v-5q-28 -109 -28 -322q0 -164 68 -164q56 0 103 116q34 81 43 164q17 145 27 322q2 26 33 26h3q43 0 43 -33zM324 833q0 -18 -33 -39l-16 -10l-52 -31l-10 16v-1q-7 10 -7 18q0 10 27 37
q5 6 21 21q10 21 33 21q1 0 11 -2l-1 1q27 -4 27 -31z" />
    <glyph glyph-name="Thorn" unicode="&#xde;" horiz-adv-x="147" 
d="M117 88q0 -101 -67 -101q-28 0 -45 15l-2 3l-7 7q-2 -2 -6 -9q-12 -21 -24 -21q-13 0 -13 15q0 3 11 39q13 42 14 45q26 115 36 228v7q0 11 5 53q6 16 27 16q36 0 36 -28l-3 -22q-6 -23 -6 -28q0 -40 22 -110t22 -109zM68 91q0 38 -18 100q-1 8 -8 27q-10 -46 -36 -153
q1 -9 12 -23.5t18 -14.5q32 0 32 64z" />
    <glyph glyph-name="agrave" unicode="&#xe0;" 
d="M159 0q-34 0 -56 49q-24 -66 -64 -66q-59 0 -59 135v14q0 46 21 128q28 108 55 108q48 0 61 -28l15 -32l37 -12q-33 -107 -33 -181v-8q0 -18 4 -35q5 -26 14 -26q24 0 77 230q7 30 23 30q17 0 17 -24q0 -32 -35 -149q-40 -133 -77 -133zM72 93q18 61 21 84l10 86l-10 14
q-5 39 -14 39q-11 0 -39 -108q-15 -56 -15 -143q0 -11 4 -23q4 -15 12 -17q15 11 31 68zM100 508l-12 -13l-48 30l-18 11v-1q-27 17 -27 39q0 24 23 30l-1 -1q8 2 10 2q20 0 31 -20v1q1 -1 9.5 -9t13.5 -13q26 -26 26 -37q0 -9 -7 -19z" />
    <glyph glyph-name="aacute" unicode="&#xe1;" 
d="M159 0q-34 0 -56 49q-24 -66 -64 -66q-59 0 -59 135v14q0 46 21 128q28 108 55 108q48 0 61 -28l15 -32l37 -12q-33 -107 -33 -181v-8q0 -18 4 -35q5 -26 14 -26q24 0 77 230q7 30 23 30q17 0 17 -24q0 -32 -35 -149q-40 -133 -77 -133zM72 93q18 61 21 84l10 86l-10 14
q-5 39 -14 39q-11 0 -39 -108q-15 -56 -15 -143q0 -11 4 -23q4 -15 12 -17q15 11 31 68zM228 574q0 -20 -31 -39q-1 -1 -3 -2t-6 -3.5t-7 -4.5l-51 -31l-9 17v-1q-8 8 -8 17q0 10 27 37l20 20q12 21 33 21q2 0 10 -2l-1 1q26 -5 26 -30z" />
    <glyph glyph-name="acircumflex" unicode="&#xe2;" 
d="M159 0q-34 0 -56 49q-24 -66 -64 -66q-59 0 -59 135v14q0 46 21 128q28 108 55 108q48 0 61 -28l15 -32l37 -12q-33 -107 -33 -181v-8q0 -18 4 -35q5 -26 14 -26q24 0 77 230q7 30 23 30q17 0 17 -24q0 -32 -35 -149q-40 -133 -77 -133zM72 93q18 61 21 84l10 86l-10 14
q-5 39 -14 39q-11 0 -39 -108q-15 -56 -15 -143q0 -11 4 -23q4 -15 12 -17q15 11 31 68zM198 500l-6 -2q-10 0 -23 19l-2 6q-7 9 -14 25l1 -1q-6 10 -15 10q-10 0 -22 -12l-2 -2q-26 -26 -35 -26h-4q-12 6 -12 17v6q2 12 32 45q32 29 45 29h1q11 0 37 -41q27 -41 27 -55v-3
q0 -9 -8 -15z" />
    <glyph glyph-name="atilde" unicode="&#xe3;" 
d="M159 0q-34 0 -56 49q-24 -66 -64 -66q-59 0 -59 135v14q0 46 21 128q28 108 55 108q48 0 61 -28l15 -32l37 -12q-33 -107 -33 -181v-8q0 -18 4 -35q5 -26 14 -26q24 0 77 230q7 30 23 30q17 0 17 -24q0 -32 -35 -149q-40 -133 -77 -133zM72 93q18 61 21 84l10 86l-10 14
q-5 39 -14 39q-11 0 -39 -108q-15 -56 -15 -143q0 -11 4 -23q4 -15 12 -17q15 11 31 68zM155 499l-1 1q-8 4 -39 36q-28 27 -34 27q-5 0 -9 -12q-7 -22 -18 -22q-14 0 -14 27q0 46 32 54q2 0 4 1h3q18 0 49 -28q5 -10 33 -31q1 -1 4 -1q5 0 23 32q3 3 9 15q16 -12 16 -30
q0 -26 -15.5 -49t-31.5 -23q-6 0 -11 3z" />
    <glyph glyph-name="adieresis" unicode="&#xe4;" 
d="M159 0q-34 0 -56 49q-24 -66 -64 -66q-59 0 -59 135v14q0 46 21 128q28 108 55 108q48 0 61 -28l15 -32l37 -13q-33 -105 -33 -180v-8q0 -18 4 -35q5 -26 14 -26q24 0 77 230q7 30 23 30q17 0 17 -24q0 -32 -35 -149q-40 -133 -77 -133zM72 93q20 65 21 84l10 85l-10 15
q-5 39 -14 39t-39 -108q-15 -54 -15 -143q0 -39 16 -40q15 11 31 68zM207 537q0 -46 -31 -46q-18 0 -31.5 15.5t-13.5 34.5q0 13 12.5 27t24.5 14q39 0 39 -45zM122 538q0 -46 -31 -46q-18 0 -31.5 15.5t-13.5 34.5q0 13 12.5 27t24.5 14q39 0 39 -45z" />
    <glyph glyph-name="aring" unicode="&#xe5;" 
d="M271 283q0 -33 -35 -150q-40 -133 -77 -133q-33 0 -56 50q-24 -67 -64 -67q-59 0 -59 136v13q0 44 21 128q28 109 55 109q48 0 61 -28l15 -32l37 -13q-33 -105 -33 -180v-9q0 -18 4 -35q5 -26 14 -26q24 0 77 231q7 30 23 30q17 0 17 -24zM148 499q-48 0 -48 57
q0 32 26 70t58 38q41 0 48 -43q0 -3 1 -6v-6q0 -32 -26 -70q-27 -40 -59 -40zM93 178l10 85l-10 15q-5 39 -14 39q-8 0 -20 -40q-34 -115 -34 -212q0 -11 4 -23q4 -15 12 -17q13 11 33 72q14 45 19 81zM177 613q-11 0 -22 -21q-11 -20 -11 -31v-4q2 -9 7 -9q13 0 25 19h-1
q12 21 12 32v5q-3 9 -10 9z" />
    <glyph glyph-name="ccedilla" unicode="&#xe7;" horiz-adv-x="151" 
d="M84 -1q-25 -31 -26 -36q29 -16 34 -51q0 -2 1 -3v-3q0 -19 -28 -38q-27 -21 -45 -21q-2 0 -2 2q0 -11 -11 -11q-9 0 -12 21q-1 2 -1 13q0 6 3 14q16 3 30 10q15 4 15 12q-2 6 -23 10h-5q-2 1 -5 1q-5 5 -9 16q0 6 3 15l38 56q-48 28 -48 139q0 61 15 125q26 101 65 101
q18 0 35 -23q18 -22 18 -41q0 -33 -25 -33q-13 0 -31 12q-30 -48 -30 -177q0 -66 27 -66q44 0 88 200q1 3 4 16.5t5 23.5h-1q7 22 21 22q17 0 17 -26q0 -11 -17 -82q-16 -66 -32 -110q-31 -81 -68 -88z" />
    <glyph glyph-name="egrave" unicode="&#xe8;" horiz-adv-x="176" 
d="M227 285q0 -15 -13 -67q-36 -149 -72 -199q-22 -30 -57 -30q-46 0 -70 47q-19 38 -19 89q0 71 10 135q20 113 61 113q24 0 43 -18t19 -41q0 -71 -41 -165q-21 -48 -38 -72q0 -14 13.5 -30.5t24.5 -16.5q39 0 91 214q15 62 27 62q21 0 21 -21zM75 508l-12 -13l-47 30l-2 1
q-1 1 -3 2l-4 2l-1 1q-1 1 -2.5 2t-3.5 2q-30 18 -30 38q0 25 26 30v-1q6 2 8 2q19 0 29 -19v1q3 -2 23 -22q26 -26 26 -37q0 -9 -7 -19zM85 303q0 23 -3 23q-2 -2 -3 -5q-29 -91 -34 -180q11 23 23 63q17 63 17 99z" />
    <glyph glyph-name="eacute" unicode="&#xe9;" horiz-adv-x="175" 
d="M225 285q0 -14 -13 -67q-35 -149 -71 -199q-23 -30 -56 -30q-46 0 -70 47q-19 38 -19 89q0 71 10 135q20 113 60 113q24 0 43 -17.5t19 -41.5q0 -71 -41 -165q-19 -43 -37 -72q0 -15 13 -31t24 -16q39 0 91 214q15 62 26 62q21 0 21 -21zM225 573q0 -17 -32 -38l-15 -10
l-50 -31l-9 16v-1q-8 11 -8 18q0 11 26 37l20 20q11 20 33 20l10 -2l-1 1q26 -5 26 -30zM85 303q0 23 -4 23q-2 -2 -3 -5q-28 -91 -33 -180q10 24 22 63q18 64 18 99z" />
    <glyph glyph-name="ecircumflex" unicode="&#xea;" horiz-adv-x="175" 
d="M225 285q0 -14 -13 -67q-35 -149 -71 -199q-23 -30 -56 -30q-46 0 -70 47q-19 38 -19 89q0 71 10 135q20 113 60 113q24 0 43 -17.5t19 -41.5q0 -71 -41 -165q-19 -43 -37 -72q0 -16 14 -30q12 -17 23 -17q39 0 91 214q15 62 26 62q21 0 21 -21zM182 500l-5 -2
q-12 0 -22 19l-3 5q-10 17 -14 26l1 -1q-7 10 -15 10q-9 0 -21 -12l-2 -2q-26 -26 -35 -26h-3q-12 5 -12 17v6q3 15 32 44t44 29h1q12 0 36 -38q27 -43 27 -58v-2q0 -9 -9 -15zM85 303q0 24 -4 24q-1 -1 -3 -6q-28 -93 -33 -180q10 24 22 63q18 64 18 99z" />
    <glyph glyph-name="edieresis" unicode="&#xeb;" horiz-adv-x="175" 
d="M225 285q0 -14 -13 -67q-35 -149 -71 -199q-23 -30 -56 -30q-46 0 -70 47q-19 38 -19 89q0 70 10 134q20 114 60 114q24 0 43 -17.5t19 -41.5q0 -72 -41 -165q-13 -30 -37 -73q0 -13 13 -29q14 -17 24 -17q39 0 91 214q15 62 26 62q21 0 21 -21zM85 303q0 23 -4 23l-3 -6
q-28 -91 -33 -179q10 24 22 63q18 64 18 99zM192 537q0 -46 -31 -46q-18 0 -31.5 15.5t-13.5 34.5q0 13 12.5 27t24.5 14q39 0 39 -45zM107 538q0 -46 -31 -46q-18 0 -31.5 15.5t-13.5 34.5q0 13 12.5 27t24.5 14q39 0 39 -45z" />
    <glyph glyph-name="igrave" unicode="&#xec;" horiz-adv-x="121" 
d="M172 283q0 -28 -32 -138q-24 -79 -31 -96q-19 -48 -53 -48q-32 0 -49 38q-11 30 -11 67q0 34 6 107q7 69 7 109q12 13 28 13q33 0 33 -23q0 -2 -1 -5.5t-2.5 -10.5t-2.5 -12q0 -1 -2.5 -11.5t-4.5 -19.5q-17 -83 -17 -148q0 -56 18 -56q10 0 24 45q9 35 28 96
q15 50 22 85q7 31 23 31q17 0 17 -23zM48 507l-12 -12l-44 30q-3 2 -10 5q-5 1 -9 5l1 -1q-30 20 -30 39q0 24 26 30l-1 -1q8 2 10 2q17 0 28 -18l22 -23q25 -25 25 -36q0 -8 -6 -20z" />
    <glyph glyph-name="iacute" unicode="&#xed;" horiz-adv-x="119" 
d="M169 283q0 -24 -32 -138q-15 -53 -21 -70q-27 -74 -61 -74q-58 0 -58 105q0 36 6 108t6 108q12 13 27 13q33 0 33 -23q-1 -2 -13 -59q-17 -83 -17 -148q0 -56 18 -56q9 0 23 45q9 35 28 96q14 45 22 85q6 31 22 31q17 0 17 -23zM179 573q0 -20 -31 -39l-15 -9l-49 -31
l-9 16v-1q-7 7 -7 18t25 36q5 5 7 8l13 13q11 20 31 20q2 0 10 -2l-1 1q26 -5 26 -30z" />
    <glyph glyph-name="icircumflex" unicode="&#xee;" horiz-adv-x="118" 
d="M168 283q0 -27 -32 -138q-22 -77 -30 -96q-20 -48 -51 -48q-58 0 -58 106q0 36 6 107q6 72 6 108q12 13 27 13q32 0 32 -23q-4 -17 -12 -59q-17 -88 -17 -148q0 -56 17 -56q10 0 24 45l28 96q10 33 21 85q7 31 22 31q17 0 17 -23zM130 500l-5 -2q-10 0 -22 18l-3 6
q-3 9 -13 25l1 -1q-8 11 -14 11q-8 0 -21 -13l-2 -2q-26 -26 -34 -26h-4q-11 6 -11 18v5q5 17 31 45q27 29 43 29h1q12 0 36 -41q25 -40 25 -55v-3q0 -8 -8 -14z" />
    <glyph glyph-name="idieresis" unicode="&#xef;" horiz-adv-x="121" 
d="M169 282q0 -35 -31 -137q-22 -75 -31 -96q-20 -48 -52 -48q-58 0 -58 105q0 36 6 108t6 108q12 13 27 13q33 0 33 -24q-6 -24 -13 -59q-17 -85 -17 -148q0 -55 18 -55q11 0 24 45l28 96q9 33 21 85q7 31 22 31q17 0 17 -24zM132 537q0 -46 -31 -46q-18 0 -31.5 15.5
t-13.5 34.5q0 13 12.5 27t24.5 14q39 0 39 -45zM47 538q0 -46 -31 -46q-16 0 -29.5 15.5t-13.5 34.5q0 12 12.5 26.5t22.5 14.5q39 0 39 -45z" />
    <glyph glyph-name="eth" unicode="&#xf0;" horiz-adv-x="184" 
d="M104 -12q-37 0 -77 61q-16 -13 -22 -13q-15 0 -15 16q0 8 21 45q-8 46 -8 79q0 251 56 433l-1 -1q5 74 41 74q69 0 69 -94q0 -249 -86 -447q-2 -12 -21 -48q2 -14 16 -34q17 -20 28 -20q28 0 77 184q4 4 4 8l-1 -1q2 11 11 50v-1q6 28 21 28q18 0 18 -24q0 -36 -38 -155
q-47 -140 -93 -140zM122 548q0 43 -5 63q-67 -226 -67 -402q0 -9 2 -33q70 168 70 372z" />
    <glyph glyph-name="ntilde" unicode="&#xf1;" horiz-adv-x="266" 
d="M317 282q0 -30 -33 -135q-46 -147 -81 -147q-42 0 -57 76q-6 36 -10 107q-16 -52 -33 -130q-10 -49 -38 -49q-37 0 -45 48l-4 74q0 11 -0.5 21t-1 15t-0.5 6q0 7 2 37l3 33l-9 19q1 26 6 40v-1q8 23 32 23q28 0 28 -28q0 -8 -6 -29t-6 -27q0 -29 -1 -52t-1 -52
q0 -55 5 -60q-1 3 3 18v-1q10 39 21 76l-1 -1q0 1 2.5 11.5t8.5 40t12 57.5q18 88 29 96q60 -4 60 -41h-9q3 -14 -1 -56q-10 -96 -10 -122q0 -95 17 -95t45 96q23 75 32 119q7 37 24 37t17 -24zM156 499l-1 1q-13 8 -46 40q-15 23 -28 23q-5 0 -9 -13q-6 -21 -18 -21
q-14 0 -14 27q0 45 32 53q2 0 4 1h3q19 0 50 -28q2 -8 32 -30q1 -1 4 -1q6 0 24 32q3 3 8 14q17 -11 17 -30q0 -27 -16 -49t-32 -22q-6 0 -10 3z" />
    <glyph glyph-name="ograve" unicode="&#xf2;" horiz-adv-x="232" 
d="M284 288q0 -51 -22 -99q-28 -63 -69 -63q-4 0 -26 8q-1 -4 -6 -29l-1 -1q0 -2 -0.5 -4t-0.5 -5q-17 -49 -27 -68h1q-22 -34 -55 -34q-78 0 -78 152q0 85 15 125q-2 9 -2 24q4 9 12 44l3 12q10 40 42 40q25 0 56 -23q30 -21 38 -49q8 -27 8 -138q9 -6 14 -6q27 0 41 32
q6 14 18 75q4 25 21 25q18 0 18 -18zM123 144q0 18 -8 61q-7 38 -7 62q0 11 1 22q0 4 0.5 9t1 8t0.5 4q0 24 -21 24q-11 0 -25 -83q-14 -81 -14 -117q0 -95 32 -95q5 0 19 33q21 50 21 72zM76 507l-12 -12l-48 30l-1 1q-1 0 -3 1.5t-4 2.5q-38 20 -38 43q0 24 26 30l-1 -1
q2 0 4 0.5t3 1.5h2q17 0 30 -19v1l22 -22q27 -27 27 -37q0 -7 -7 -20z" />
    <glyph glyph-name="oacute" unicode="&#xf3;" horiz-adv-x="231" 
d="M282 288q0 -51 -22 -99q-28 -63 -69 -63q-6 0 -25 8q-3 -15 -6 -29v-1q-1 -2 -1.5 -4t-0.5 -5q-17 -49 -27 -68h1q-22 -34 -54 -34q-78 0 -78 152q0 85 15 125q-2 9 -2 24q3 14 7 18q1 8 5 26l3 12q10 40 41 40q27 0 56 -23t37 -49q9 -28 9 -138q7 -6 14 -6q28 0 40 32
q5 9 19 75q4 25 20 25q18 0 18 -18zM122 144q0 18 -8 61q-7 38 -7 62q0 11 1 22q0 4 0.5 9t1 8t0.5 4q0 24 -20 24q-12 0 -27 -85q-13 -74 -13 -115q0 -95 32 -95q6 0 19 33q21 51 21 72zM228 573q0 -17 -32 -38l-2 -1q-2 -2 -6 -4.5t-8 -4.5l-50 -31l-10 16v-1q-7 10 -7 18
q0 11 26 37q3 3 10 9.5t11 10.5q11 20 32 20q1 0 11 -2l-1 1q26 -5 26 -30z" />
    <glyph glyph-name="ocircumflex" unicode="&#xf4;" horiz-adv-x="231" 
d="M282 288q0 -51 -22 -99q-28 -63 -69 -63q-6 0 -25 8q-3 -15 -6 -29v-1q-1 -2 -1.5 -4t-0.5 -5q-17 -49 -27 -68h1q-22 -34 -54 -34q-78 0 -78 152q0 85 15 125l-2 23v2q3 13 7 17q1 7 5 26l3 12q10 40 41 40q27 0 56 -23t37 -49q9 -28 9 -138q7 -6 14 -6q28 0 40 32
q5 9 19 75q4 25 20 25q18 0 18 -18zM122 144q0 18 -8 61q-7 38 -7 62q0 11 1 22q0 4 0.5 9t1 8t0.5 4q0 24 -20 24q-12 0 -27 -85q-13 -74 -13 -115q0 -95 32 -95q6 0 19 33q21 51 21 72zM197 500l-6 -2q-10 0 -22 18l-3 6q-3 4 -14 25l1 -1q-8 11 -15 11q-9 0 -21 -12
l-2 -2q-27 -27 -36 -27h-3q-13 6 -13 18v6q6 19 34 45q28 28 44 28h1q10 0 36 -38q27 -42 27 -58v-3q0 -9 -8 -14z" />
    <glyph glyph-name="otilde" unicode="&#xf5;" horiz-adv-x="231" 
d="M282 288q0 -51 -22 -99q-28 -63 -69 -63q-6 0 -25 8q-3 -15 -6 -29v-1q-1 -2 -1.5 -4t-0.5 -5q-17 -49 -27 -68h1q-22 -34 -54 -34q-78 0 -78 152q0 85 15 125q-2 9 -2 24q3 14 7 18q1 7 5 26l3 12q10 40 41 40q27 0 56 -23t37 -49q9 -28 9 -138q7 -6 14 -6q28 0 40 32
q5 9 19 75q4 25 20 25q18 0 18 -18zM122 144q0 18 -8 61q-7 38 -7 62q0 11 1 22q0 4 0.5 9t1 8t0.5 4q0 24 -20 24q-12 0 -27 -85q-13 -74 -13 -115q0 -95 32 -95q6 0 19 33q21 51 21 72zM155 499l-1 1q-25 17 -46 41q-16 22 -28 22q-4 0 -8 -13q-8 -21 -18 -21
q-14 0 -14 27q0 45 32 53q3 0 6 1q19 0 50 -28q5 -4 7 -9q10 -10 26 -21q1 -1 3 -1q4 0 24 32l3 5q3 5 5 10q17 -14 17 -30q0 -26 -16 -49t-32 -23q-5 0 -10 3z" />
    <glyph glyph-name="odieresis" unicode="&#xf6;" horiz-adv-x="231" 
d="M282 287q0 -51 -22 -99q-27 -62 -69 -62q-6 0 -25 8q-3 -15 -6 -29v-1q-1 -2 -1.5 -4t-0.5 -5q-17 -49 -27 -68h1q-22 -34 -54 -34q-78 0 -78 152q0 85 15 125q-2 9 -2 24q3 14 7 18q0 6 5 26l3 11q11 41 41 41q25 0 56 -24q30 -21 38 -49q8 -27 8 -137q7 -6 14 -6
q28 0 40 32q5 9 19 75q4 25 20 25q18 0 18 -19zM122 144q0 18 -8 61q-7 38 -7 62q0 5 1.5 22t1.5 21q0 24 -20 24q-11 0 -26 -84q-14 -82 -14 -116q0 -95 32 -95q6 0 19 33q21 51 21 72zM192 537q0 -46 -31 -46q-18 0 -31.5 15.5t-13.5 34.5q0 13 12.5 27t24.5 14
q39 0 39 -45zM107 538q0 -46 -31 -46q-18 0 -31.5 15.5t-13.5 34.5q0 13 12.5 27t24.5 14q39 0 39 -45z" />
    <glyph glyph-name="divide" unicode="&#xf7;" horiz-adv-x="577" 
d="M51 221v65h494v-65h-494zM299 393q-26 0 -45 19.5t-19 44.5q0 26 19 44.5t44 18.5t43.5 -19t18.5 -44q0 -24 -18.5 -44t-42.5 -20zM299 -11q-27 0 -45.5 18t-18.5 43q0 27 19 45.5t44 18.5t43.5 -19.5t18.5 -44.5q0 -24 -18.5 -42.5t-42.5 -18.5z" />
    <glyph glyph-name="ugrave" unicode="&#xf9;" horiz-adv-x="261" 
d="M77 507l-13 -12l-48 30l-1 1q-1 0 -3 1.5t-4 2.5q-38 20 -38 43q0 24 26 30l-1 -1q2 0 4 0.5t3 1.5h2q18 0 30 -19v1q14 -14 23 -22q26 -24 26 -37q0 -3 -6 -20zM140 327q0 32 28 32q37 0 37 -25q0 -4 -12 -36q0 -10 -9 -72v1q-8 -62 -8 -87q0 -80 18 -80q17 0 46 98
q22 80 33 121q7 21 21 21q17 0 17 -21q0 -32 -32 -136q-42 -133 -88 -133q-25 0 -44 37v-1l-10 25q-4 -8 -12 -25.5t-12 -26.5q-17 -26 -47 -26t-46 30q-13 25 -13 58q0 204 14 227q9 14 25 14q13 0 23.5 -11t10.5 -25q0 -15 -4 -24v1q0 -2 -1.5 -5.5t-3 -8.5t-2.5 -9l1 1
q-13 -74 -13 -175q0 -32 9 -32q6 0 18 19v-1q19 37 30 88l18 90q10 49 10 86q0 2 -1 6t-1 5z" />
    <glyph glyph-name="uacute" unicode="&#xfa;" horiz-adv-x="259" 
d="M229 573q0 -20 -32 -38q-1 -1 -7 -4q-2 -1 -9 -6l-51 -31l-9 16v-1q-7 7 -7 18t26 37l20 20q11 20 33 20q1 0 11 -2l-1 1q26 -5 26 -30zM140 327q0 32 28 32q37 0 37 -25q0 -4 -12 -36q0 -10 -9 -72v1q-8 -62 -8 -87q0 -80 18 -80q17 0 46 98q22 80 33 121q7 21 21 21
q17 0 17 -21q0 -32 -32 -136q-42 -133 -88 -133q-25 0 -44 37v-1l-10 25q-4 -8 -12 -25.5t-12 -26.5q-17 -26 -47 -26t-46 30q-13 25 -13 58q0 204 14 227q9 14 25 14q13 0 23.5 -11t10.5 -25q0 -15 -4 -24v1q0 -2 -1.5 -5.5t-3 -8.5t-2.5 -9l1 1q-13 -74 -13 -175
q0 -32 9 -32q6 0 18 19v-1q19 37 30 88l18 90q10 49 10 86q0 2 -1 6t-1 5z" />
    <glyph glyph-name="ucircumflex" unicode="&#xfb;" horiz-adv-x="259" 
d="M189 500l-6 -2q-9 0 -23 18l-2 6q-7 11 -14 25v-1q-5 11 -15 11q-9 0 -21 -12l-2 -2q-27 -27 -36 -27h-3q-13 6 -13 18v6q6 17 34 45t44 28h1q13 0 38 -40q26 -41 26 -56v-3q0 -8 -8 -14zM140 327q0 32 28 32q37 0 37 -25q0 -4 -12 -36q0 -10 -9 -72v1q-8 -62 -8 -87
q0 -80 18 -80q17 0 46 98q22 80 33 121q7 21 21 21q17 0 17 -21q0 -32 -32 -136q-42 -133 -88 -133q-25 0 -44 37v-1l-10 25q-4 -8 -12 -25.5t-12 -26.5q-17 -26 -47 -26t-46 30q-13 25 -13 58q0 204 14 227q9 14 25 14q13 0 23.5 -11t10.5 -25q0 -15 -4 -24v1
q0 -2 -1.5 -5.5t-3 -8.5t-2.5 -9l1 1q-13 -74 -13 -175q0 -32 9 -32q6 0 18 19v-1q19 37 30 88l18 90q10 49 10 86q0 2 -1 6t-1 5z" />
    <glyph glyph-name="udieresis" unicode="&#xfc;" horiz-adv-x="259" 
d="M192 537q0 -46 -31 -46q-18 0 -31.5 15.5t-13.5 34.5q0 13 12.5 27t24.5 14q39 0 39 -45zM107 538q0 -46 -31 -46q-18 0 -31.5 15.5t-13.5 34.5q0 13 12.5 27t24.5 14q39 0 39 -45zM140 327q0 32 28 32q37 0 37 -25q0 -4 -12 -36q0 -10 -9 -72v1q-8 -62 -8 -87
q0 -80 18 -80q17 0 46 98q22 80 33 121q7 21 21 21q17 0 17 -21q0 -32 -32 -136q-42 -133 -88 -133q-25 0 -44 37v-1l-10 25q-4 -8 -12 -25.5t-12 -26.5q-17 -26 -47 -26t-46 30q-13 25 -13 58q0 204 14 227q9 14 25 14q13 0 23.5 -11t10.5 -25q0 -15 -4 -24v1
q0 -2 -1.5 -5.5t-3 -8.5t-2.5 -9l1 1q-13 -74 -13 -175q0 -32 9 -32q6 0 18 19v-1q19 37 30 88l18 90q10 49 10 86q0 2 -1 6t-1 5z" />
    <glyph glyph-name="yacute" unicode="&#xfd;" horiz-adv-x="228" 
d="M-25 135q25 74 35 134q0 75 36 75q23 0 23 -21v-3l-10 -100q-8 -85 -8 -118q0 -70 16 -70t52 141v-2q15 126 22 178q4 34 34 34h4q22 0 22 -22q0 -21 -20 -99q-8 -32 -8 -148v-48q1 -14 3 -87l1 -30q17 6 26 6q31 9 45 9q52 0 52 -33q0 -6 -5 -14l-10 -4q-34 7 -54 7
q-10 0 -48 -11q0 -8 1.5 -34.5t1.5 -34.5q0 -234 -150 -234q-47 0 -80 35q-34 34 -34 87q0 77 88 144q64 49 125 63q-2 81 -8 120q-13 -31 -21 -42q-17 -20 -39 -20q-62 0 -67 95q-31 -88 -58 -88q-31 0 -31 17q0 15 22 25q11 0 42 93zM138 -166v58q-64 -19 -112 -63
q-56 -51 -56 -110q0 -30 17 -51.5t41 -21.5q58 0 87 69q23 55 23 119zM232 580q0 -19 -32 -39q-1 -1 -3 -2t-6 -3.5t-7 -4.5l-52 -31l-9 17v-1q-8 11 -8 17q0 11 27 38q5 5 8 7l13 13l2 2l-2 -2q11 21 33 21q2 0 10 -2l-1 1q27 -5 27 -31z" />
    <glyph glyph-name="thorn" unicode="&#xfe;" horiz-adv-x="334" 
d="M309 280q0 6 -2 -4q-2 -7 -4 -21q-42 -255 -102 -255q-27 0 -46 27q-17 26 -17 53l2 194q-8 9 -29 25l-3 -6h-1q2 -10 2 -22q0 -9 -13 -83q-17 -101 -40 -210h-11q-24 0 -24 21q0 4 7 21t7 20q23 108 39 286q-15 40 -15 63q0 57 33 57q29 0 29 -47q0 -6 -1.5 -26.5
t-1.5 -26.5q0 -1 39 -26q40 -25 40 -53t-6 -83q-6 -54 -6 -81v-11l-3 -9q0 -41 17 -41q9 0 33 72h-1q37 121 37 156q0 33 21 33q18 0 18 -20q2 0 2 -3z" />
    <glyph glyph-name="ydieresis" unicode="&#xff;" horiz-adv-x="228" 
d="M-25 135q25 74 35 134q0 18 1 22q11 53 35 53q23 0 23 -21v-3l-10 -100q-8 -85 -8 -118q0 -70 16 -70t52 141v-2q15 126 22 178q4 34 34 34h4q22 0 22 -22q0 -21 -20 -99q-8 -32 -8 -148v-48q1 -14 3 -87l1 -30q17 6 26 6q31 9 45 9q52 0 52 -33q0 -6 -5 -14l-10 -4
q-34 7 -54 7q-10 0 -48 -11q0 -8 1.5 -34.5t1.5 -34.5q0 -234 -150 -234q-47 0 -80 35q-34 34 -34 87q0 80 88 144q68 50 125 63q-2 81 -8 120q-13 -31 -21 -42q-17 -20 -39 -20q-62 0 -67 95q-31 -88 -58 -88q-31 0 -31 17q0 15 22 25q11 0 42 93zM138 -166v58
q-64 -19 -112 -63q-56 -51 -56 -110q0 -30 17 -51.5t41 -21.5q58 0 87 69q23 55 23 119zM192 537q0 -46 -31 -46q-18 0 -31.5 15.5t-13.5 34.5q0 13 12.5 27t24.5 14q39 0 39 -45zM107 538q0 -46 -31 -46q-18 0 -31.5 15.5t-13.5 34.5q0 13 12.5 27t24.5 14q39 0 39 -45z
" />
    <glyph glyph-name="Zcaron" unicode="&#x17d;" horiz-adv-x="448" 
d="M471 544q0 -16 -41 -42l-5 -3q-23 -11 -249 -261q-28 -31 -74 -95q-56 -79 -56 -91q8 -2 27 -2q35 0 106 12t107 12q26 0 79 -6q68 -8 68 -30q0 -25 -33 -25q-8 0 -33 3.5t-32 3.5q-24 0 -104 -11l-97 -13q-35 -9 -43 -11v1l-8 -4q-37 -9 -51 -9q-22 0 -36.5 18.5
t-14.5 43.5q0 31 56 120q47 71 103 137h-1l147 170q77 89 77 96q0 3 -25 3q-127 0 -245 -36q-23 -8 -23 -13v-11q-41 0 -41 25q0 31 56 51q29 11 103 24q144 27 192 27q37 0 64 -24t27 -60zM176 870h4q10 0 22 -18q19 -42 32 -42q6 0 23 14q3 5 16 16v-1q13 13 22 13h3
q12 -8 12 -18v-5q-3 -19 -33 -47q-29 -29 -46 -29q-16 0 -41 40q-26 41 -26 58v3q0 7 12 16z" />
    <glyph glyph-name="zcaron" unicode="&#x17e;" horiz-adv-x="259" 
d="M281 -64l-6 -1q-30 8 -47 8t-32 -3q8 -72 8 -78q0 -79 -30 -145q-39 -85 -108 -85q-50 0 -86 37v-1q-38 35 -38 87q0 120 197 212q-11 35 -45 57q-26 -20 -40 -20q-43 0 -43 34q0 35 52 35q46 54 63 95q23 60 23 141q0 58 -33 58q-24 0 -43 -30q-17 -25 -21 -51
q-6 -38 -18 -38q-21 0 -21 25q0 30 20 78q29 68 70 68q42 0 68.5 -31.5t26.5 -80.5q0 -137 -81 -252q27 -17 40 -30q17 -22 28 -46q29 7 67 7q43 0 43 -28q0 -14 -14 -22zM160 -132q0 32 -6 60q-59 -16 -107 -70q-49 -55 -49 -116q0 -64 56 -64q54 0 82 67q24 57 24 123z
M55 620h4q10 0 21 -17q20 -42 33 -42q8 0 21 13l17 17v-1q12 13 21 13h3q12 -6 12 -18v-6q-2 -17 -32 -46q-31 -29 -46 -29t-40 40t-25 58v3q0 9 11 15z" />
    <glyph glyph-name="Eth" unicode="&#xd0;" horiz-adv-x="184" 
d="M129 366q-18 -30 -18 -50q0 -21 25 -67q4 3 21 6q14 2 17 2q1 0 3 -1t6 -2l8 -2q11 -5 15 -19v-4q0 -13 -44 -21l-2 -4q35 -65 35 -117q0 -16 -5 -33h1q-20 -65 -61 -65q-19 0 -36.5 19.5t-23.5 46.5l1 -1q-4 12 -4 33q0 59 41 130l-24 45q-17 32 -17 59
q-20 -161 -24 -269q-1 -51 -21 -51q-18 0 -23 23l1 -1q-3 6 -3 17q0 16 3 64l19 227q11 127 38 228q16 62 37 92.5t47 29.5q26 0 44 -25t18 -60v-9q0 -96 -74 -221zM95 505q-18 -89 -27 -172q6 28 34 74q56 92 56 174q0 1 -2 19l1 -1q-5 14 -15 14q-12 0 -29 -47
q-12 -35 -18 -61zM149 115q-4 17 -20 54q-24 -33 -24 -76l2 -14q11 -50 25 -50q20 0 20 58q0 16 -3 28zM167 218q-3 -2 -4 -7q5 5 9 7h-5z" />
    <glyph glyph-name="mu" unicode="&#x3bc;" horiz-adv-x="279" 
d="M216 119q0 -46 31 -65q21 -14 21 -29q0 -25 -30 -25q-38 0 -57 42v-1q-7 11 -9 30l-2 16q-1 1 -1 7q-4 -4 -14 -19q-40 -58 -75 -58q-8 0 -20 9q-20 -71 -29 -135q0 -1 -13 -106q-6 -44 -24 -44q-22 0 -22 26v4q0 123 47 313q16 64 62 144h-1q50 84 84 84q22 0 22 -20
q0 -7 -9 -19q-12 -16 -71 -105h1q-24 -50 -24 -77q0 -13 10 -13q20 0 57 61q30 48 41 82q26 80 58 80q22 0 22 -24q0 -16 -28 -72q-27 -55 -27 -86z" />
  </font>
</defs>
</svg>
